<svg xmlns="http://www.w3.org/2000/svg" xmlns:xlink="http://www.w3.org/1999/xlink" width="1024" zoomAndPan="magnify" viewBox="0 0 768 576" height="768" preserveAspectRatio="xMidYMid meet" version="1.0"><defs><g/><clipPath id="28863932bf"><path d="M 39.804688 21.382812 L 756.046875 21.382812 L 756.046875 434.632812 L 39.804688 434.632812 Z M 39.804688 21.382812 " clip-rule="nonzero"/></clipPath><clipPath id="f9abd0b7fb"><path d="M 47.304688 21.382812 L 748.503906 21.382812 C 752.644531 21.382812 756.003906 24.742188 756.003906 28.882812 L 756.003906 426.921875 C 756.003906 431.0625 752.644531 434.421875 748.503906 434.421875 L 47.304688 434.421875 C 43.160156 434.421875 39.804688 431.0625 39.804688 426.921875 L 39.804688 28.882812 C 39.804688 24.742188 43.160156 21.382812 47.304688 21.382812 Z M 47.304688 21.382812 " clip-rule="nonzero"/></clipPath><clipPath id="02a8cd9481"><path d="M 64.933594 206.382812 L 118.933594 206.382812 L 118.933594 261 L 64.933594 261 Z M 64.933594 206.382812 " clip-rule="nonzero"/></clipPath><clipPath id="b70236b4bf"><path d="M 76 245 L 108 245 L 108 265.632812 L 76 265.632812 Z M 76 245 " clip-rule="nonzero"/></clipPath></defs><rect x="-76.8" width="921.6" fill="#ffffff" y="-57.6" height="691.2" fill-opacity="1"/><rect x="-76.8" width="921.6" fill="#ffffff" y="-57.6" height="691.2" fill-opacity="1"/><g clip-path="url(#28863932bf)"><g clip-path="url(#f9abd0b7fb)"><path stroke-linecap="butt" transform="matrix(0.75, 0, 0, 0.75, 39.804293, 21.382607)" fill="none" stroke-linejoin="miter" d="M 10.000526 0.000274068 L 944.932797 0.000274068 C 950.45363 0.000274068 954.932797 4.479441 954.932797 10.000274 L 954.932797 540.719012 C 954.932797 546.239845 950.45363 550.719012 944.932797 550.719012 L 10.000526 550.719012 C 4.474484 550.719012 0.000526238 546.239845 0.000526238 540.719012 L 0.000526238 10.000274 C 0.000526238 4.479441 4.474484 0.000274068 10.000526 0.000274068 Z M 10.000526 0.000274068 " stroke="#d9d9d9" stroke-width="4" stroke-opacity="1" stroke-miterlimit="4"/></g></g><g clip-path="url(#02a8cd9481)"><path fill="#91adbb" d="M 118.675781 233.253906 C 118.675781 248.089844 106.648438 260.117188 91.8125 260.117188 C 76.976562 260.117188 64.953125 248.089844 64.953125 233.253906 C 64.949219 218.417969 76.976562 206.394531 91.8125 206.394531 C 106.648438 206.390625 118.675781 218.417969 118.675781 233.253906 " fill-opacity="1" fill-rule="nonzero"/></g><path fill="#331520" d="M 100.246094 216.976562 C 100.246094 221.558594 96.53125 225.273438 91.949219 225.273438 C 87.367188 225.273438 83.652344 221.558594 83.652344 216.976562 C 83.652344 212.394531 87.367188 208.679688 91.949219 208.679688 C 96.53125 208.679688 100.246094 212.394531 100.246094 216.976562 " fill-opacity="1" fill-rule="nonzero"/><g clip-path="url(#b70236b4bf)"><path fill="#ffffff" d="M 107.484375 260.191406 C 106.15625 261.183594 104.730469 262.050781 103.222656 262.777344 C 102.996094 262.890625 102.765625 262.996094 102.53125 263.101562 C 99.261719 264.566406 95.632812 265.382812 91.8125 265.382812 C 87.992188 265.382812 84.367188 264.566406 81.097656 263.101562 C 80.863281 262.996094 80.628906 262.890625 80.402344 262.777344 C 78.894531 262.050781 77.46875 261.183594 76.140625 260.191406 C 76.375 254.996094 79.132812 250.460938 83.21875 247.78125 C 85.6875 246.164062 88.640625 245.222656 91.8125 245.222656 C 92.296875 245.222656 92.777344 245.246094 93.246094 245.289062 C 95.875 245.527344 98.316406 246.410156 100.40625 247.78125 C 102.289062 249.015625 103.886719 250.644531 105.085938 252.546875 C 106.496094 254.777344 107.359375 257.390625 107.484375 260.191406 " fill-opacity="1" fill-rule="nonzero"/></g><path fill="#ba5c21" d="M 100.40625 247.78125 C 100.167969 249.59375 99.367188 251.230469 98.1875 252.511719 C 96.601562 254.226562 94.335938 255.300781 91.8125 255.300781 C 87.773438 255.300781 84.382812 252.539062 83.417969 248.800781 C 83.332031 248.46875 83.265625 248.128906 83.21875 247.78125 C 85.6875 246.164062 88.640625 245.222656 91.8125 245.222656 C 92.296875 245.222656 92.777344 245.242188 93.25 245.289062 C 93.332031 245.292969 93.414062 245.304688 93.492188 245.3125 C 93.542969 245.316406 93.59375 245.320312 93.644531 245.328125 C 93.703125 245.332031 93.757812 245.34375 93.8125 245.347656 C 93.847656 245.351562 93.882812 245.359375 93.917969 245.363281 C 93.964844 245.367188 94.019531 245.375 94.070312 245.382812 C 94.109375 245.386719 94.148438 245.394531 94.1875 245.402344 C 94.222656 245.40625 94.257812 245.410156 94.292969 245.417969 C 94.351562 245.425781 94.40625 245.4375 94.464844 245.445312 C 94.714844 245.488281 94.960938 245.535156 95.207031 245.589844 L 95.371094 245.625 C 95.402344 245.636719 95.433594 245.640625 95.464844 245.648438 C 95.523438 245.664062 95.582031 245.675781 95.640625 245.691406 C 95.648438 245.695312 95.660156 245.695312 95.664062 245.699219 C 95.738281 245.71875 95.8125 245.734375 95.882812 245.757812 C 95.960938 245.773438 96.039062 245.796875 96.113281 245.820312 C 96.203125 245.84375 96.289062 245.871094 96.375 245.894531 C 96.441406 245.914062 96.507812 245.9375 96.574219 245.957031 C 96.617188 245.972656 96.664062 245.984375 96.703125 246 C 96.773438 246.019531 96.84375 246.046875 96.910156 246.070312 C 96.996094 246.097656 97.082031 246.128906 97.164062 246.160156 C 97.171875 246.160156 97.175781 246.164062 97.183594 246.164062 C 97.269531 246.195312 97.355469 246.226562 97.441406 246.261719 C 97.503906 246.285156 97.570312 246.308594 97.632812 246.335938 C 97.804688 246.40625 97.96875 246.476562 98.132812 246.546875 L 98.347656 246.644531 C 98.414062 246.671875 98.480469 246.703125 98.542969 246.734375 C 98.605469 246.765625 98.660156 246.792969 98.71875 246.820312 C 98.773438 246.847656 98.828125 246.875 98.878906 246.902344 C 98.914062 246.917969 98.949219 246.933594 98.984375 246.953125 C 99.128906 247.027344 99.265625 247.101562 99.402344 247.175781 C 99.453125 247.203125 99.503906 247.230469 99.550781 247.257812 C 99.582031 247.277344 99.613281 247.296875 99.644531 247.3125 L 99.957031 247.5 C 100.03125 247.542969 100.101562 247.585938 100.171875 247.632812 C 100.253906 247.683594 100.328125 247.730469 100.40625 247.78125 " fill-opacity="1" fill-rule="nonzero"/><path fill="#ba5c21" d="M 94.832031 241.707031 L 94.832031 247.648438 C 94.832031 249.152344 93.605469 250.382812 92.101562 250.382812 L 91.523438 250.382812 C 90.023438 250.382812 88.792969 249.152344 88.792969 247.648438 L 88.792969 241.707031 C 88.792969 240.203125 90.023438 238.972656 91.523438 238.972656 L 92.101562 238.972656 C 93.605469 238.972656 94.832031 240.203125 94.832031 241.707031 " fill-opacity="1" fill-rule="nonzero"/><path fill="#9e392b" d="M 94.832031 241.707031 L 94.832031 244.851562 C 93.9375 245.351562 92.984375 245.640625 92.015625 245.640625 C 90.875 245.640625 89.789062 245.324219 88.792969 244.769531 L 88.792969 241.707031 C 88.792969 240.203125 90.023438 238.972656 91.523438 238.972656 L 92.101562 238.972656 C 93.605469 238.972656 94.832031 240.203125 94.832031 241.707031 " fill-opacity="1" fill-rule="nonzero"/><path fill="#ba5c21" d="M 101.125 238.023438 C 101.125 238.023438 102.914062 237.414062 104.058594 235.421875 C 105.300781 233.253906 104.519531 231.90625 104.273438 231.613281 C 103.601562 230.8125 102.5625 231.328125 102.390625 231.613281 C 102.222656 231.898438 99.746094 236.398438 101.125 238.023438 " fill-opacity="1" fill-rule="nonzero"/><path fill="#9e392b" d="M 102.878906 232.324219 C 102.878906 232.324219 104.015625 232.46875 103.617188 234.0625 C 103.214844 235.660156 102.167969 236.292969 100.742188 237.109375 C 99.316406 237.925781 101.453125 232.648438 102.878906 232.324219 " fill-opacity="1" fill-rule="nonzero"/><path fill="#ba5c21" d="M 82.964844 238.023438 C 82.964844 238.023438 81.175781 237.414062 80.035156 235.421875 C 78.789062 233.253906 79.570312 231.90625 79.816406 231.613281 C 80.488281 230.8125 81.527344 231.328125 81.699219 231.613281 C 81.867188 231.898438 84.347656 236.398438 82.964844 238.023438 " fill-opacity="1" fill-rule="nonzero"/><path fill="#9e392b" d="M 81.210938 232.324219 C 81.210938 232.324219 80.078125 232.46875 80.476562 234.0625 C 80.875 235.660156 81.921875 236.292969 83.347656 237.109375 C 84.773438 237.925781 82.636719 232.648438 81.210938 232.324219 " fill-opacity="1" fill-rule="nonzero"/><path fill="#ba5c21" d="M 102.878906 231.269531 C 102.878906 224.714844 98.039062 219.398438 92.070312 219.398438 C 86.101562 219.398438 81.257812 224.714844 81.257812 231.269531 C 81.257812 237.824219 86.101562 244.679688 92.070312 244.679688 C 97.679688 244.679688 102.878906 237.769531 102.878906 231.269531 " fill-opacity="1" fill-rule="nonzero"/><path fill="#331520" d="M 93.042969 226.480469 C 93.042969 226.480469 95.078125 233.023438 102.726562 232.375 C 102.726562 232.375 104.0625 230.445312 103.609375 226.246094 C 103.101562 221.511719 98.90625 217.53125 92.070312 218.957031 C 92.070312 218.957031 91.445312 222.320312 93.042969 226.480469 " fill-opacity="1" fill-rule="nonzero"/><path fill="#331520" d="M 93.386719 219.398438 C 93.386719 219.398438 93.667969 218.160156 92.644531 217.1875 C 91.617188 216.21875 78.027344 218.210938 81.257812 231.269531 C 81.257812 231.269531 84.425781 223.460938 92.8125 222.773438 L 93.386719 219.398438 " fill-opacity="1" fill-rule="nonzero"/><g fill="#868282" fill-opacity="1"><g transform="translate(23.391531, 349.246177)"><g><path d="M -7.265625 -12.65625 L -0.8125 -12.65625 C -0.507812 -12.039062 -0.269531 -11.296875 -0.09375 -10.421875 C 0.0820312 -9.554688 0.171875 -8.671875 0.171875 -7.765625 C 0.171875 -6.390625 -0.101562 -5.191406 -0.65625 -4.171875 C -1.207031 -3.148438 -2 -2.367188 -3.03125 -1.828125 C -4.0625 -1.285156 -5.296875 -1.015625 -6.734375 -1.015625 C -8.140625 -1.015625 -9.359375 -1.285156 -10.390625 -1.828125 C -11.421875 -2.367188 -12.210938 -3.140625 -12.765625 -4.140625 C -13.316406 -5.140625 -13.59375 -6.3125 -13.59375 -7.65625 C -13.59375 -8.601562 -13.453125 -9.488281 -13.171875 -10.3125 C -12.898438 -11.132812 -12.515625 -11.820312 -12.015625 -12.375 L -10.234375 -11.546875 C -10.722656 -10.910156 -11.078125 -10.289062 -11.296875 -9.6875 C -11.515625 -9.082031 -11.625 -8.425781 -11.625 -7.71875 C -11.625 -6.332031 -11.207031 -5.285156 -10.375 -4.578125 C -9.539062 -3.867188 -8.328125 -3.515625 -6.734375 -3.515625 C -5.085938 -3.515625 -3.84375 -3.878906 -3 -4.609375 C -2.164062 -5.335938 -1.75 -6.421875 -1.75 -7.859375 C -1.75 -8.742188 -1.867188 -9.613281 -2.109375 -10.46875 L -5.5 -10.46875 L -5.5 -7.5625 L -7.265625 -7.5625 Z M -7.265625 -12.65625 "/></g></g></g><g fill="#868282" fill-opacity="1"><g transform="translate(23.391531, 335.307635)"><g><path d="M 0.15625 -5.59375 C 0.15625 -4.632812 -0.046875 -3.785156 -0.453125 -3.046875 C -0.859375 -2.304688 -1.429688 -1.738281 -2.171875 -1.34375 C -2.921875 -0.945312 -3.800781 -0.75 -4.8125 -0.75 C -5.8125 -0.75 -6.6875 -0.945312 -7.4375 -1.34375 C -8.1875 -1.738281 -8.757812 -2.304688 -9.15625 -3.046875 C -9.5625 -3.785156 -9.765625 -4.632812 -9.765625 -5.59375 C -9.765625 -6.550781 -9.5625 -7.394531 -9.15625 -8.125 C -8.757812 -8.851562 -8.1875 -9.414062 -7.4375 -9.8125 C -6.6875 -10.207031 -5.8125 -10.40625 -4.8125 -10.40625 C -3.800781 -10.40625 -2.921875 -10.207031 -2.171875 -9.8125 C -1.429688 -9.414062 -0.859375 -8.851562 -0.453125 -8.125 C -0.046875 -7.394531 0.15625 -6.550781 0.15625 -5.59375 Z M -1.703125 -5.578125 C -1.703125 -6.390625 -1.960938 -7.003906 -2.484375 -7.421875 C -3.003906 -7.835938 -3.78125 -8.046875 -4.8125 -8.046875 C -5.832031 -8.046875 -6.609375 -7.832031 -7.140625 -7.40625 C -7.671875 -6.976562 -7.9375 -6.375 -7.9375 -5.59375 C -7.9375 -4.800781 -7.671875 -4.191406 -7.140625 -3.765625 C -6.609375 -3.335938 -5.832031 -3.125 -4.8125 -3.125 C -3.78125 -3.125 -3.003906 -3.332031 -2.484375 -3.75 C -1.960938 -4.175781 -1.703125 -4.785156 -1.703125 -5.578125 Z M -1.703125 -5.578125 "/></g></g></g><g fill="#868282" fill-opacity="1"><g transform="translate(23.391531, 324.141715)"><g><path d="M 0.15625 -5.59375 C 0.15625 -4.632812 -0.046875 -3.785156 -0.453125 -3.046875 C -0.859375 -2.304688 -1.429688 -1.738281 -2.171875 -1.34375 C -2.921875 -0.945312 -3.800781 -0.75 -4.8125 -0.75 C -5.8125 -0.75 -6.6875 -0.945312 -7.4375 -1.34375 C -8.1875 -1.738281 -8.757812 -2.304688 -9.15625 -3.046875 C -9.5625 -3.785156 -9.765625 -4.632812 -9.765625 -5.59375 C -9.765625 -6.550781 -9.5625 -7.394531 -9.15625 -8.125 C -8.757812 -8.851562 -8.1875 -9.414062 -7.4375 -9.8125 C -6.6875 -10.207031 -5.8125 -10.40625 -4.8125 -10.40625 C -3.800781 -10.40625 -2.921875 -10.207031 -2.171875 -9.8125 C -1.429688 -9.414062 -0.859375 -8.851562 -0.453125 -8.125 C -0.046875 -7.394531 0.15625 -6.550781 0.15625 -5.59375 Z M -1.703125 -5.578125 C -1.703125 -6.390625 -1.960938 -7.003906 -2.484375 -7.421875 C -3.003906 -7.835938 -3.78125 -8.046875 -4.8125 -8.046875 C -5.832031 -8.046875 -6.609375 -7.832031 -7.140625 -7.40625 C -7.671875 -6.976562 -7.9375 -6.375 -7.9375 -5.59375 C -7.9375 -4.800781 -7.671875 -4.191406 -7.140625 -3.765625 C -6.609375 -3.335938 -5.832031 -3.125 -4.8125 -3.125 C -3.78125 -3.125 -3.003906 -3.332031 -2.484375 -3.75 C -1.960938 -4.175781 -1.703125 -4.785156 -1.703125 -5.578125 Z M -1.703125 -5.578125 "/></g></g></g><g fill="#868282" fill-opacity="1"><g transform="translate(23.391531, 312.975794)"><g><path d="M -13.875 -10.390625 L 0 -10.390625 L 0 -8.078125 L -1.53125 -8.078125 C -1 -7.785156 -0.582031 -7.367188 -0.28125 -6.828125 C 0.0078125 -6.285156 0.15625 -5.671875 0.15625 -4.984375 C 0.15625 -4.160156 -0.0507812 -3.425781 -0.46875 -2.78125 C -0.882812 -2.144531 -1.472656 -1.644531 -2.234375 -1.28125 C -2.992188 -0.925781 -3.863281 -0.75 -4.84375 -0.75 C -5.820312 -0.75 -6.679688 -0.925781 -7.421875 -1.28125 C -8.171875 -1.632812 -8.75 -2.128906 -9.15625 -2.765625 C -9.5625 -3.410156 -9.765625 -4.148438 -9.765625 -4.984375 C -9.765625 -5.660156 -9.625 -6.265625 -9.34375 -6.796875 C -9.0625 -7.328125 -8.660156 -7.738281 -8.140625 -8.03125 L -13.875 -8.03125 Z M -1.703125 -5.59375 C -1.703125 -6.375 -1.96875 -6.984375 -2.5 -7.421875 C -3.039062 -7.859375 -3.8125 -8.078125 -4.8125 -8.078125 C -5.800781 -8.078125 -6.566406 -7.863281 -7.109375 -7.4375 C -7.648438 -7.007812 -7.921875 -6.40625 -7.921875 -5.625 C -7.921875 -4.832031 -7.648438 -4.21875 -7.109375 -3.78125 C -6.578125 -3.34375 -5.820312 -3.125 -4.84375 -3.125 C -3.851562 -3.125 -3.082031 -3.34375 -2.53125 -3.78125 C -1.976562 -4.21875 -1.703125 -4.820312 -1.703125 -5.59375 Z M -1.703125 -5.59375 "/></g></g></g><g fill="#868282" fill-opacity="1"><g transform="translate(23.391531, 301.299422)"><g/></g></g><g fill="#868282" fill-opacity="1"><g transform="translate(23.391531, 296.131415)"><g/></g></g><g fill="#868282" fill-opacity="1"><g transform="translate(23.391531, 290.963408)"><g/></g></g><g fill="#868282" fill-opacity="1"><g transform="translate(23.391531, 285.7954)"><g/></g></g><g fill="#868282" fill-opacity="1"><g transform="translate(23.391531, 280.627393)"><g/></g></g><g fill="#868282" fill-opacity="1"><g transform="translate(23.391531, 275.459386)"><g/></g></g><g fill="#868282" fill-opacity="1"><g transform="translate(23.391531, 270.291379)"><g/></g></g><g fill="#868282" fill-opacity="1"><g transform="translate(23.391531, 265.123372)"><g/></g></g><g fill="#868282" fill-opacity="1"><g transform="translate(23.391531, 259.955365)"><g/></g></g><g fill="#868282" fill-opacity="1"><g transform="translate(23.391531, 254.787358)"><g/></g></g><g fill="#868282" fill-opacity="1"><g transform="translate(23.391531, 249.619351)"><g/></g></g><g fill="#868282" fill-opacity="1"><g transform="translate(23.391531, 244.451344)"><g/></g></g><g fill="#868282" fill-opacity="1"><g transform="translate(23.391531, 239.283336)"><g/></g></g><g fill="#868282" fill-opacity="1"><g transform="translate(23.391531, 234.115329)"><g/></g></g><g fill="#868282" fill-opacity="1"><g transform="translate(23.391531, 228.947322)"><g/></g></g><g fill="#868282" fill-opacity="1"><g transform="translate(23.391531, 223.779315)"><g/></g></g><g fill="#868282" fill-opacity="1"><g transform="translate(23.391531, 218.611308)"><g/></g></g><g fill="#868282" fill-opacity="1"><g transform="translate(23.391531, 213.443301)"><g/></g></g><g fill="#868282" fill-opacity="1"><g transform="translate(23.391531, 208.275294)"><g/></g></g><g fill="#868282" fill-opacity="1"><g transform="translate(23.391531, 203.107287)"><g/></g></g><g fill="#868282" fill-opacity="1"><g transform="translate(23.391531, 197.93928)"><g/></g></g><g fill="#868282" fill-opacity="1"><g transform="translate(23.391531, 192.771272)"><g/></g></g><g fill="#868282" fill-opacity="1"><g transform="translate(23.391531, 187.603265)"><g/></g></g><g fill="#868282" fill-opacity="1"><g transform="translate(23.391531, 182.435258)"><g/></g></g><g fill="#868282" fill-opacity="1"><g transform="translate(23.391531, 177.267251)"><g/></g></g><g fill="#868282" fill-opacity="1"><g transform="translate(23.391531, 172.099244)"><g/></g></g><g fill="#868282" fill-opacity="1"><g transform="translate(23.391531, 166.931237)"><g/></g></g><g fill="#868282" fill-opacity="1"><g transform="translate(23.391531, 161.76323)"><g/></g></g><g fill="#868282" fill-opacity="1"><g transform="translate(23.391531, 156.595223)"><g/></g></g><g fill="#868282" fill-opacity="1"><g transform="translate(23.391531, 151.427216)"><g/></g></g><g fill="#868282" fill-opacity="1"><g transform="translate(23.391531, 146.259208)"><g/></g></g><g fill="#868282" fill-opacity="1"><g transform="translate(23.391531, 141.0843)"><g><path d="M -6.9375 -9.71875 C -6.707031 -10.488281 -6.3125 -11.082031 -5.75 -11.5 C -5.1875 -11.925781 -4.488281 -12.140625 -3.65625 -12.140625 C -2.507812 -12.140625 -1.613281 -11.734375 -0.96875 -10.921875 C -0.320312 -10.117188 0 -8.992188 0 -7.546875 L 0 -1.453125 L -13.421875 -1.453125 L -13.421875 -7.359375 C -13.421875 -8.742188 -13.109375 -9.832031 -12.484375 -10.625 C -11.867188 -11.414062 -11.015625 -11.8125 -9.921875 -11.8125 C -9.210938 -11.8125 -8.597656 -11.625 -8.078125 -11.25 C -7.554688 -10.875 -7.175781 -10.363281 -6.9375 -9.71875 Z M -7.765625 -3.828125 L -7.765625 -6.953125 C -7.765625 -8.640625 -8.394531 -9.484375 -9.65625 -9.484375 C -10.28125 -9.484375 -10.75 -9.273438 -11.0625 -8.859375 C -11.382812 -8.441406 -11.546875 -7.804688 -11.546875 -6.953125 L -11.546875 -3.828125 Z M -1.890625 -7.28125 C -1.890625 -8.15625 -2.046875 -8.796875 -2.359375 -9.203125 C -2.671875 -9.617188 -3.164062 -9.828125 -3.84375 -9.828125 C -4.539062 -9.828125 -5.050781 -9.617188 -5.375 -9.203125 C -5.695312 -8.796875 -5.859375 -8.15625 -5.859375 -7.28125 L -5.859375 -3.828125 L -1.890625 -3.828125 Z M -1.890625 -7.28125 "/></g></g></g><g fill="#868282" fill-opacity="1"><g transform="translate(23.391531, 128.069966)"><g><path d="M -9.53125 -10.390625 L 0 -10.390625 L 0 -8.078125 L -1.53125 -8.078125 C -1 -7.785156 -0.582031 -7.367188 -0.28125 -6.828125 C 0.0078125 -6.285156 0.15625 -5.671875 0.15625 -4.984375 C 0.15625 -4.148438 -0.046875 -3.410156 -0.453125 -2.765625 C -0.859375 -2.128906 -1.429688 -1.632812 -2.171875 -1.28125 C -2.910156 -0.925781 -3.769531 -0.75 -4.75 -0.75 C -5.726562 -0.75 -6.597656 -0.925781 -7.359375 -1.28125 C -8.117188 -1.644531 -8.707031 -2.144531 -9.125 -2.78125 C -9.550781 -3.425781 -9.765625 -4.160156 -9.765625 -4.984375 C -9.765625 -5.671875 -9.613281 -6.285156 -9.3125 -6.828125 C -9.019531 -7.367188 -8.613281 -7.785156 -8.09375 -8.078125 L -9.53125 -8.078125 Z M -1.703125 -5.625 C -1.703125 -6.40625 -1.96875 -7.007812 -2.5 -7.4375 C -3.039062 -7.863281 -3.804688 -8.078125 -4.796875 -8.078125 C -5.796875 -8.078125 -6.566406 -7.863281 -7.109375 -7.4375 C -7.648438 -7.007812 -7.921875 -6.394531 -7.921875 -5.59375 C -7.921875 -4.820312 -7.640625 -4.21875 -7.078125 -3.78125 C -6.523438 -3.34375 -5.75 -3.125 -4.75 -3.125 C -3.769531 -3.125 -3.015625 -3.34375 -2.484375 -3.78125 C -1.960938 -4.21875 -1.703125 -4.832031 -1.703125 -5.625 Z M -1.703125 -5.625 "/></g></g></g><g fill="#868282" fill-opacity="1"><g transform="translate(23.391531, 116.394791)"><g><path d="M -13.875 -10.390625 L 0 -10.390625 L 0 -8.078125 L -1.53125 -8.078125 C -1 -7.785156 -0.582031 -7.367188 -0.28125 -6.828125 C 0.0078125 -6.285156 0.15625 -5.671875 0.15625 -4.984375 C 0.15625 -4.160156 -0.0507812 -3.425781 -0.46875 -2.78125 C -0.882812 -2.144531 -1.472656 -1.644531 -2.234375 -1.28125 C -2.992188 -0.925781 -3.863281 -0.75 -4.84375 -0.75 C -5.820312 -0.75 -6.679688 -0.925781 -7.421875 -1.28125 C -8.171875 -1.632812 -8.75 -2.128906 -9.15625 -2.765625 C -9.5625 -3.410156 -9.765625 -4.148438 -9.765625 -4.984375 C -9.765625 -5.660156 -9.625 -6.265625 -9.34375 -6.796875 C -9.0625 -7.328125 -8.660156 -7.738281 -8.140625 -8.03125 L -13.875 -8.03125 Z M -1.703125 -5.59375 C -1.703125 -6.375 -1.96875 -6.984375 -2.5 -7.421875 C -3.039062 -7.859375 -3.8125 -8.078125 -4.8125 -8.078125 C -5.800781 -8.078125 -6.566406 -7.863281 -7.109375 -7.4375 C -7.648438 -7.007812 -7.921875 -6.40625 -7.921875 -5.625 C -7.921875 -4.832031 -7.648438 -4.21875 -7.109375 -3.78125 C -6.578125 -3.34375 -5.820312 -3.125 -4.84375 -3.125 C -3.851562 -3.125 -3.082031 -3.34375 -2.53125 -3.78125 C -1.976562 -4.21875 -1.703125 -4.820312 -1.703125 -5.59375 Z M -1.703125 -5.59375 "/></g></g></g><g fill="#868282" fill-opacity="1"><g transform="translate(48.124203, 458.921774)"><g><path d="M 1.453125 -13.421875 L 7.28125 -13.421875 C 8.726562 -13.421875 9.851562 -13.070312 10.65625 -12.375 C 11.457031 -11.675781 11.859375 -10.726562 11.859375 -9.53125 C 11.859375 -8.320312 11.453125 -7.363281 10.640625 -6.65625 C 9.835938 -5.945312 8.71875 -5.59375 7.28125 -5.59375 L 3.890625 -5.59375 L 3.890625 0 L 1.453125 0 Z M 7 -7.484375 C 7.84375 -7.484375 8.476562 -7.65625 8.90625 -8 C 9.34375 -8.351562 9.5625 -8.851562 9.5625 -9.5 C 9.5625 -10.164062 9.347656 -10.671875 8.921875 -11.015625 C 8.492188 -11.367188 7.851562 -11.546875 7 -11.546875 L 3.890625 -11.546875 L 3.890625 -7.484375 Z M 7 -7.484375 "/></g></g></g><g fill="#868282" fill-opacity="1"><g transform="translate(60.685852, 458.921774)"><g><path d="M 6.40625 -9.75 C 6.769531 -9.75 7.085938 -9.695312 7.359375 -9.59375 L 7.34375 -7.453125 C 6.9375 -7.609375 6.519531 -7.6875 6.09375 -7.6875 C 5.289062 -7.6875 4.675781 -7.453125 4.25 -6.984375 C 3.832031 -6.523438 3.625 -5.914062 3.625 -5.15625 L 3.625 0 L 1.28125 0 L 1.28125 -6.828125 C 1.28125 -7.828125 1.226562 -8.726562 1.125 -9.53125 L 3.34375 -9.53125 L 3.53125 -7.84375 C 3.769531 -8.457031 4.144531 -8.925781 4.65625 -9.25 C 5.175781 -9.582031 5.757812 -9.75 6.40625 -9.75 Z M 6.40625 -9.75 "/></g></g></g><g fill="#868282" fill-opacity="1"><g transform="translate(68.079493, 458.921774)"><g><path d="M 9.625 -4.640625 L 3.0625 -4.640625 C 3.101562 -3.617188 3.351562 -2.863281 3.8125 -2.375 C 4.269531 -1.894531 4.953125 -1.65625 5.859375 -1.65625 C 6.910156 -1.65625 7.878906 -1.992188 8.765625 -2.671875 L 9.453125 -1.0625 C 8.992188 -0.695312 8.4375 -0.398438 7.78125 -0.171875 C 7.125 0.046875 6.453125 0.15625 5.765625 0.15625 C 4.210938 0.15625 2.988281 -0.28125 2.09375 -1.15625 C 1.195312 -2.039062 0.75 -3.253906 0.75 -4.796875 C 0.75 -5.765625 0.941406 -6.625 1.328125 -7.375 C 1.722656 -8.125 2.269531 -8.707031 2.96875 -9.125 C 3.675781 -9.550781 4.476562 -9.765625 5.375 -9.765625 C 6.6875 -9.765625 7.722656 -9.335938 8.484375 -8.484375 C 9.242188 -7.640625 9.625 -6.476562 9.625 -5 Z M 5.4375 -8.078125 C 4.800781 -8.078125 4.285156 -7.890625 3.890625 -7.515625 C 3.492188 -7.140625 3.238281 -6.601562 3.125 -5.90625 L 7.5625 -5.90625 C 7.488281 -6.625 7.269531 -7.164062 6.90625 -7.53125 C 6.550781 -7.894531 6.0625 -8.078125 5.4375 -8.078125 Z M 5.4375 -8.078125 "/></g></g></g><g fill="#868282" fill-opacity="1"><g transform="translate(78.415507, 458.921774)"><g><path d="M 1.296875 -4.15625 L 1.296875 -6.03125 L 6.984375 -6.03125 L 6.984375 -4.15625 Z M 1.296875 -4.15625 "/></g></g></g><g fill="#868282" fill-opacity="1"><g transform="translate(86.676772, 458.921774)"><g><path d="M 4.28125 -7.75 L 4.28125 -3.484375 C 4.28125 -2.367188 4.800781 -1.8125 5.84375 -1.8125 C 6.132812 -1.8125 6.453125 -1.863281 6.796875 -1.96875 L 6.796875 -0.09375 C 6.378906 0.0507812 5.875 0.125 5.28125 0.125 C 4.195312 0.125 3.363281 -0.171875 2.78125 -0.765625 C 2.207031 -1.367188 1.921875 -2.238281 1.921875 -3.375 L 1.921875 -7.75 L 0.09375 -7.75 L 0.09375 -9.53125 L 1.921875 -9.53125 L 1.921875 -11.84375 L 4.28125 -12.640625 L 4.28125 -9.53125 L 6.8125 -9.53125 L 6.8125 -7.75 Z M 4.28125 -7.75 "/></g></g></g><g fill="#868282" fill-opacity="1"><g transform="translate(93.825228, 458.921774)"><g><path d="M 6.40625 -9.75 C 6.769531 -9.75 7.085938 -9.695312 7.359375 -9.59375 L 7.34375 -7.453125 C 6.9375 -7.609375 6.519531 -7.6875 6.09375 -7.6875 C 5.289062 -7.6875 4.675781 -7.453125 4.25 -6.984375 C 3.832031 -6.523438 3.625 -5.914062 3.625 -5.15625 L 3.625 0 L 1.28125 0 L 1.28125 -6.828125 C 1.28125 -7.828125 1.226562 -8.726562 1.125 -9.53125 L 3.34375 -9.53125 L 3.53125 -7.84375 C 3.769531 -8.457031 4.144531 -8.925781 4.65625 -9.25 C 5.175781 -9.582031 5.757812 -9.75 6.40625 -9.75 Z M 6.40625 -9.75 "/></g></g></g><g fill="#868282" fill-opacity="1"><g transform="translate(101.218869, 458.921774)"><g><path d="M 9.625 -4.640625 L 3.0625 -4.640625 C 3.101562 -3.617188 3.351562 -2.863281 3.8125 -2.375 C 4.269531 -1.894531 4.953125 -1.65625 5.859375 -1.65625 C 6.910156 -1.65625 7.878906 -1.992188 8.765625 -2.671875 L 9.453125 -1.0625 C 8.992188 -0.695312 8.4375 -0.398438 7.78125 -0.171875 C 7.125 0.046875 6.453125 0.15625 5.765625 0.15625 C 4.210938 0.15625 2.988281 -0.28125 2.09375 -1.15625 C 1.195312 -2.039062 0.75 -3.253906 0.75 -4.796875 C 0.75 -5.765625 0.941406 -6.625 1.328125 -7.375 C 1.722656 -8.125 2.269531 -8.707031 2.96875 -9.125 C 3.675781 -9.550781 4.476562 -9.765625 5.375 -9.765625 C 6.6875 -9.765625 7.722656 -9.335938 8.484375 -8.484375 C 9.242188 -7.640625 9.625 -6.476562 9.625 -5 Z M 5.4375 -8.078125 C 4.800781 -8.078125 4.285156 -7.890625 3.890625 -7.515625 C 3.492188 -7.140625 3.238281 -6.601562 3.125 -5.90625 L 7.5625 -5.90625 C 7.488281 -6.625 7.269531 -7.164062 6.90625 -7.53125 C 6.550781 -7.894531 6.0625 -8.078125 5.4375 -8.078125 Z M 5.4375 -8.078125 "/></g></g></g><g fill="#868282" fill-opacity="1"><g transform="translate(111.554883, 458.921774)"><g><path d="M 10.390625 -9.53125 L 10.390625 0 L 8.078125 0 L 8.078125 -1.53125 C 7.785156 -1 7.367188 -0.582031 6.828125 -0.28125 C 6.285156 0.0078125 5.671875 0.15625 4.984375 0.15625 C 4.148438 0.15625 3.410156 -0.046875 2.765625 -0.453125 C 2.128906 -0.859375 1.632812 -1.429688 1.28125 -2.171875 C 0.925781 -2.910156 0.75 -3.769531 0.75 -4.75 C 0.75 -5.726562 0.925781 -6.597656 1.28125 -7.359375 C 1.644531 -8.117188 2.144531 -8.707031 2.78125 -9.125 C 3.425781 -9.550781 4.160156 -9.765625 4.984375 -9.765625 C 5.671875 -9.765625 6.285156 -9.613281 6.828125 -9.3125 C 7.367188 -9.019531 7.785156 -8.613281 8.078125 -8.09375 L 8.078125 -9.53125 Z M 5.625 -1.703125 C 6.40625 -1.703125 7.007812 -1.96875 7.4375 -2.5 C 7.863281 -3.039062 8.078125 -3.804688 8.078125 -4.796875 C 8.078125 -5.796875 7.863281 -6.566406 7.4375 -7.109375 C 7.007812 -7.648438 6.394531 -7.921875 5.59375 -7.921875 C 4.820312 -7.921875 4.21875 -7.640625 3.78125 -7.078125 C 3.34375 -6.523438 3.125 -5.75 3.125 -4.75 C 3.125 -3.769531 3.34375 -3.015625 3.78125 -2.484375 C 4.21875 -1.960938 4.832031 -1.703125 5.625 -1.703125 Z M 5.625 -1.703125 "/></g></g></g><g fill="#868282" fill-opacity="1"><g transform="translate(123.230058, 458.921774)"><g><path d="M 4.28125 -7.75 L 4.28125 -3.484375 C 4.28125 -2.367188 4.800781 -1.8125 5.84375 -1.8125 C 6.132812 -1.8125 6.453125 -1.863281 6.796875 -1.96875 L 6.796875 -0.09375 C 6.378906 0.0507812 5.875 0.125 5.28125 0.125 C 4.195312 0.125 3.363281 -0.171875 2.78125 -0.765625 C 2.207031 -1.367188 1.921875 -2.238281 1.921875 -3.375 L 1.921875 -7.75 L 0.09375 -7.75 L 0.09375 -9.53125 L 1.921875 -9.53125 L 1.921875 -11.84375 L 4.28125 -12.640625 L 4.28125 -9.53125 L 6.8125 -9.53125 L 6.8125 -7.75 Z M 4.28125 -7.75 "/></g></g></g><g fill="#868282" fill-opacity="1"><g transform="translate(130.378513, 458.921774)"><g><path d="M 12.515625 -9.765625 C 13.597656 -9.765625 14.40625 -9.441406 14.9375 -8.796875 C 15.46875 -8.148438 15.734375 -7.164062 15.734375 -5.84375 L 15.734375 0 L 13.375 0 L 13.375 -5.765625 C 13.375 -6.523438 13.25 -7.070312 13 -7.40625 C 12.757812 -7.738281 12.351562 -7.90625 11.78125 -7.90625 C 11.132812 -7.90625 10.625 -7.675781 10.25 -7.21875 C 9.875 -6.757812 9.6875 -6.125 9.6875 -5.3125 L 9.6875 0 L 7.34375 0 L 7.34375 -5.765625 C 7.34375 -6.515625 7.210938 -7.054688 6.953125 -7.390625 C 6.691406 -7.734375 6.285156 -7.90625 5.734375 -7.90625 C 5.078125 -7.90625 4.5625 -7.675781 4.1875 -7.21875 C 3.8125 -6.757812 3.625 -6.125 3.625 -5.3125 L 3.625 0 L 1.28125 0 L 1.28125 -6.828125 C 1.28125 -7.828125 1.226562 -8.726562 1.125 -9.53125 L 3.34375 -9.53125 L 3.515625 -8.015625 C 3.785156 -8.578125 4.179688 -9.007812 4.703125 -9.3125 C 5.222656 -9.613281 5.820312 -9.765625 6.5 -9.765625 C 7.957031 -9.765625 8.910156 -9.160156 9.359375 -7.953125 C 9.660156 -8.523438 10.085938 -8.96875 10.640625 -9.28125 C 11.203125 -9.601562 11.828125 -9.765625 12.515625 -9.765625 Z M 12.515625 -9.765625 "/></g></g></g><g fill="#868282" fill-opacity="1"><g transform="translate(147.334862, 458.921774)"><g><path d="M 9.625 -4.640625 L 3.0625 -4.640625 C 3.101562 -3.617188 3.351562 -2.863281 3.8125 -2.375 C 4.269531 -1.894531 4.953125 -1.65625 5.859375 -1.65625 C 6.910156 -1.65625 7.878906 -1.992188 8.765625 -2.671875 L 9.453125 -1.0625 C 8.992188 -0.695312 8.4375 -0.398438 7.78125 -0.171875 C 7.125 0.046875 6.453125 0.15625 5.765625 0.15625 C 4.210938 0.15625 2.988281 -0.28125 2.09375 -1.15625 C 1.195312 -2.039062 0.75 -3.253906 0.75 -4.796875 C 0.75 -5.765625 0.941406 -6.625 1.328125 -7.375 C 1.722656 -8.125 2.269531 -8.707031 2.96875 -9.125 C 3.675781 -9.550781 4.476562 -9.765625 5.375 -9.765625 C 6.6875 -9.765625 7.722656 -9.335938 8.484375 -8.484375 C 9.242188 -7.640625 9.625 -6.476562 9.625 -5 Z M 5.4375 -8.078125 C 4.800781 -8.078125 4.285156 -7.890625 3.890625 -7.515625 C 3.492188 -7.140625 3.238281 -6.601562 3.125 -5.90625 L 7.5625 -5.90625 C 7.488281 -6.625 7.269531 -7.164062 6.90625 -7.53125 C 6.550781 -7.894531 6.0625 -8.078125 5.4375 -8.078125 Z M 5.4375 -8.078125 "/></g></g></g><g fill="#868282" fill-opacity="1"><g transform="translate(157.670876, 458.921774)"><g><path d="M 6.734375 -9.765625 C 9.003906 -9.765625 10.140625 -8.457031 10.140625 -5.84375 L 10.140625 0 L 7.78125 0 L 7.78125 -5.734375 C 7.78125 -6.484375 7.632812 -7.03125 7.34375 -7.375 C 7.0625 -7.726562 6.617188 -7.90625 6.015625 -7.90625 C 5.296875 -7.90625 4.71875 -7.675781 4.28125 -7.21875 C 3.84375 -6.757812 3.625 -6.148438 3.625 -5.390625 L 3.625 0 L 1.28125 0 L 1.28125 -6.828125 C 1.28125 -7.828125 1.226562 -8.726562 1.125 -9.53125 L 3.34375 -9.53125 L 3.515625 -7.953125 C 3.835938 -8.535156 4.273438 -8.984375 4.828125 -9.296875 C 5.390625 -9.609375 6.023438 -9.765625 6.734375 -9.765625 Z M 6.734375 -9.765625 "/></g></g></g><g fill="#868282" fill-opacity="1"><g transform="translate(169.044265, 458.921774)"><g><path d="M 4.28125 -7.75 L 4.28125 -3.484375 C 4.28125 -2.367188 4.800781 -1.8125 5.84375 -1.8125 C 6.132812 -1.8125 6.453125 -1.863281 6.796875 -1.96875 L 6.796875 -0.09375 C 6.378906 0.0507812 5.875 0.125 5.28125 0.125 C 4.195312 0.125 3.363281 -0.171875 2.78125 -0.765625 C 2.207031 -1.367188 1.921875 -2.238281 1.921875 -3.375 L 1.921875 -7.75 L 0.09375 -7.75 L 0.09375 -9.53125 L 1.921875 -9.53125 L 1.921875 -11.84375 L 4.28125 -12.640625 L 4.28125 -9.53125 L 6.8125 -9.53125 L 6.8125 -7.75 Z M 4.28125 -7.75 "/></g></g></g><g fill="#868282" fill-opacity="1"><g transform="translate(176.194878, 458.921774)"><g/></g></g><g fill="#868282" fill-opacity="1"><g transform="translate(181.362885, 458.921774)"><g/></g></g><g fill="#868282" fill-opacity="1"><g transform="translate(186.530892, 458.921774)"><g/></g></g><g fill="#868282" fill-opacity="1"><g transform="translate(191.698899, 458.921774)"><g/></g></g><g fill="#868282" fill-opacity="1"><g transform="translate(196.866906, 458.921774)"><g/></g></g><g fill="#868282" fill-opacity="1"><g transform="translate(202.034913, 458.921774)"><g/></g></g><g fill="#868282" fill-opacity="1"><g transform="translate(207.20292, 458.921774)"><g/></g></g><g fill="#868282" fill-opacity="1"><g transform="translate(212.370928, 458.921774)"><g/></g></g><g fill="#868282" fill-opacity="1"><g transform="translate(217.538935, 458.921774)"><g/></g></g><g fill="#868282" fill-opacity="1"><g transform="translate(222.706942, 458.921774)"><g/></g></g><g fill="#868282" fill-opacity="1"><g transform="translate(227.874949, 458.921774)"><g/></g></g><g fill="#868282" fill-opacity="1"><g transform="translate(233.042956, 458.921774)"><g/></g></g><g fill="#868282" fill-opacity="1"><g transform="translate(238.210963, 458.921774)"><g/></g></g><g fill="#868282" fill-opacity="1"><g transform="translate(243.37897, 458.921774)"><g/></g></g><g fill="#868282" fill-opacity="1"><g transform="translate(248.546977, 458.921774)"><g/></g></g><g fill="#868282" fill-opacity="1"><g transform="translate(253.714984, 458.921774)"><g/></g></g><g fill="#868282" fill-opacity="1"><g transform="translate(258.882992, 458.921774)"><g/></g></g><g fill="#868282" fill-opacity="1"><g transform="translate(264.050999, 458.921774)"><g/></g></g><g fill="#868282" fill-opacity="1"><g transform="translate(269.219006, 458.921774)"><g/></g></g><g fill="#868282" fill-opacity="1"><g transform="translate(274.387013, 458.921774)"><g/></g></g><g fill="#868282" fill-opacity="1"><g transform="translate(279.55502, 458.921774)"><g/></g></g><g fill="#868282" fill-opacity="1"><g transform="translate(284.723027, 458.921774)"><g/></g></g><g fill="#868282" fill-opacity="1"><g transform="translate(289.891034, 458.921774)"><g/></g></g><g fill="#868282" fill-opacity="1"><g transform="translate(295.059041, 458.921774)"><g/></g></g><g fill="#868282" fill-opacity="1"><g transform="translate(300.227048, 458.921774)"><g/></g></g><g fill="#868282" fill-opacity="1"><g transform="translate(305.395056, 458.921774)"><g/></g></g><g fill="#868282" fill-opacity="1"><g transform="translate(310.563063, 458.921774)"><g/></g></g><g fill="#868282" fill-opacity="1"><g transform="translate(315.73107, 458.921774)"><g/></g></g><g fill="#868282" fill-opacity="1"><g transform="translate(320.899077, 458.921774)"><g/></g></g><g fill="#868282" fill-opacity="1"><g transform="translate(326.067084, 458.921774)"><g/></g></g><g fill="#868282" fill-opacity="1"><g transform="translate(331.235091, 458.921774)"><g/></g></g><g fill="#868282" fill-opacity="1"><g transform="translate(336.403098, 458.921774)"><g/></g></g><g fill="#868282" fill-opacity="1"><g transform="translate(341.571105, 458.921774)"><g/></g></g><g fill="#868282" fill-opacity="1"><g transform="translate(346.739112, 458.921774)"><g/></g></g><g fill="#868282" fill-opacity="1"><g transform="translate(351.907119, 458.921774)"><g/></g></g><g fill="#868282" fill-opacity="1"><g transform="translate(357.075127, 458.921774)"><g/></g></g><g fill="#868282" fill-opacity="1"><g transform="translate(362.243134, 458.921774)"><g/></g></g><g fill="#868282" fill-opacity="1"><g transform="translate(367.411141, 458.921774)"><g/></g></g><g fill="#868282" fill-opacity="1"><g transform="translate(372.579148, 458.921774)"><g/></g></g><g fill="#868282" fill-opacity="1"><g transform="translate(377.747155, 458.921774)"><g/></g></g><g fill="#868282" fill-opacity="1"><g transform="translate(382.915162, 458.921774)"><g/></g></g><g fill="#868282" fill-opacity="1"><g transform="translate(388.083169, 458.921774)"><g/></g></g><g fill="#868282" fill-opacity="1"><g transform="translate(393.251176, 458.921774)"><g/></g></g><g fill="#868282" fill-opacity="1"><g transform="translate(398.419183, 458.921774)"><g/></g></g><g fill="#868282" fill-opacity="1"><g transform="translate(403.587191, 458.921774)"><g/></g></g><g fill="#868282" fill-opacity="1"><g transform="translate(408.755198, 458.921774)"><g/></g></g><g fill="#868282" fill-opacity="1"><g transform="translate(413.923205, 458.921774)"><g/></g></g><g fill="#868282" fill-opacity="1"><g transform="translate(419.091212, 458.921774)"><g/></g></g><g fill="#868282" fill-opacity="1"><g transform="translate(424.259219, 458.921774)"><g/></g></g><g fill="#868282" fill-opacity="1"><g transform="translate(429.427226, 458.921774)"><g/></g></g><g fill="#868282" fill-opacity="1"><g transform="translate(434.595233, 458.921774)"><g/></g></g><g fill="#868282" fill-opacity="1"><g transform="translate(439.76324, 458.921774)"><g/></g></g><g fill="#868282" fill-opacity="1"><g transform="translate(444.931247, 458.921774)"><g/></g></g><g fill="#868282" fill-opacity="1"><g transform="translate(450.099255, 458.921774)"><g/></g></g><g fill="#868282" fill-opacity="1"><g transform="translate(455.267262, 458.921774)"><g/></g></g><g fill="#868282" fill-opacity="1"><g transform="translate(460.435269, 458.921774)"><g/></g></g><g fill="#868282" fill-opacity="1"><g transform="translate(465.603276, 458.921774)"><g/></g></g><g fill="#868282" fill-opacity="1"><g transform="translate(470.771283, 458.921774)"><g/></g></g><g fill="#868282" fill-opacity="1"><g transform="translate(475.93929, 458.921774)"><g/></g></g><g fill="#868282" fill-opacity="1"><g transform="translate(481.107297, 458.921774)"><g/></g></g><g fill="#868282" fill-opacity="1"><g transform="translate(486.275304, 458.921774)"><g/></g></g><g fill="#868282" fill-opacity="1"><g transform="translate(491.443311, 458.921774)"><g/></g></g><g fill="#868282" fill-opacity="1"><g transform="translate(496.625121, 458.921774)"><g><path d="M 1.453125 -13.421875 L 7.28125 -13.421875 C 8.726562 -13.421875 9.851562 -13.070312 10.65625 -12.375 C 11.457031 -11.675781 11.859375 -10.726562 11.859375 -9.53125 C 11.859375 -8.320312 11.453125 -7.363281 10.640625 -6.65625 C 9.835938 -5.945312 8.71875 -5.59375 7.28125 -5.59375 L 3.890625 -5.59375 L 3.890625 0 L 1.453125 0 Z M 7 -7.484375 C 7.84375 -7.484375 8.476562 -7.65625 8.90625 -8 C 9.34375 -8.351562 9.5625 -8.851562 9.5625 -9.5 C 9.5625 -10.164062 9.347656 -10.671875 8.921875 -11.015625 C 8.492188 -11.367188 7.851562 -11.546875 7 -11.546875 L 3.890625 -11.546875 L 3.890625 -7.484375 Z M 7 -7.484375 "/></g></g></g><g fill="#868282" fill-opacity="1"><g transform="translate(509.186769, 458.921774)"><g><path d="M 5.59375 0.15625 C 4.632812 0.15625 3.785156 -0.046875 3.046875 -0.453125 C 2.304688 -0.859375 1.738281 -1.429688 1.34375 -2.171875 C 0.945312 -2.921875 0.75 -3.800781 0.75 -4.8125 C 0.75 -5.8125 0.945312 -6.6875 1.34375 -7.4375 C 1.738281 -8.1875 2.304688 -8.757812 3.046875 -9.15625 C 3.785156 -9.5625 4.632812 -9.765625 5.59375 -9.765625 C 6.550781 -9.765625 7.394531 -9.5625 8.125 -9.15625 C 8.851562 -8.757812 9.414062 -8.1875 9.8125 -7.4375 C 10.207031 -6.6875 10.40625 -5.8125 10.40625 -4.8125 C 10.40625 -3.800781 10.207031 -2.921875 9.8125 -2.171875 C 9.414062 -1.429688 8.851562 -0.859375 8.125 -0.453125 C 7.394531 -0.046875 6.550781 0.15625 5.59375 0.15625 Z M 5.578125 -1.703125 C 6.390625 -1.703125 7.003906 -1.960938 7.421875 -2.484375 C 7.835938 -3.003906 8.046875 -3.78125 8.046875 -4.8125 C 8.046875 -5.832031 7.832031 -6.609375 7.40625 -7.140625 C 6.976562 -7.671875 6.375 -7.9375 5.59375 -7.9375 C 4.800781 -7.9375 4.191406 -7.671875 3.765625 -7.140625 C 3.335938 -6.609375 3.125 -5.832031 3.125 -4.8125 C 3.125 -3.78125 3.332031 -3.003906 3.75 -2.484375 C 4.175781 -1.960938 4.785156 -1.703125 5.578125 -1.703125 Z M 5.578125 -1.703125 "/></g></g></g><g fill="#868282" fill-opacity="1"><g transform="translate(520.35269, 458.921774)"><g><path d="M 4.765625 0.15625 C 3.046875 0.15625 1.675781 -0.25 0.65625 -1.0625 L 1.3125 -2.71875 C 2.332031 -1.957031 3.5 -1.578125 4.8125 -1.578125 C 5.375 -1.578125 5.804688 -1.671875 6.109375 -1.859375 C 6.421875 -2.054688 6.578125 -2.320312 6.578125 -2.65625 C 6.578125 -2.945312 6.46875 -3.175781 6.25 -3.34375 C 6.039062 -3.519531 5.679688 -3.671875 5.171875 -3.796875 L 3.578125 -4.15625 C 1.847656 -4.53125 0.984375 -5.414062 0.984375 -6.8125 C 0.984375 -7.382812 1.144531 -7.894531 1.46875 -8.34375 C 1.800781 -8.789062 2.257812 -9.140625 2.84375 -9.390625 C 3.4375 -9.640625 4.125 -9.765625 4.90625 -9.765625 C 5.582031 -9.765625 6.234375 -9.660156 6.859375 -9.453125 C 7.492188 -9.242188 8.050781 -8.945312 8.53125 -8.5625 L 7.828125 -6.953125 C 6.867188 -7.660156 5.890625 -8.015625 4.890625 -8.015625 C 4.347656 -8.015625 3.925781 -7.910156 3.625 -7.703125 C 3.320312 -7.503906 3.171875 -7.234375 3.171875 -6.890625 C 3.171875 -6.609375 3.257812 -6.382812 3.4375 -6.21875 C 3.625 -6.0625 3.9375 -5.925781 4.375 -5.8125 L 6 -5.453125 C 6.9375 -5.234375 7.625 -4.898438 8.0625 -4.453125 C 8.5 -4.015625 8.71875 -3.4375 8.71875 -2.71875 C 8.71875 -1.832031 8.363281 -1.128906 7.65625 -0.609375 C 6.945312 -0.0976562 5.984375 0.15625 4.765625 0.15625 Z M 4.765625 0.15625 "/></g></g></g><g fill="#868282" fill-opacity="1"><g transform="translate(529.80223, 458.921774)"><g><path d="M 4.28125 -7.75 L 4.28125 -3.484375 C 4.28125 -2.367188 4.800781 -1.8125 5.84375 -1.8125 C 6.132812 -1.8125 6.453125 -1.863281 6.796875 -1.96875 L 6.796875 -0.09375 C 6.378906 0.0507812 5.875 0.125 5.28125 0.125 C 4.195312 0.125 3.363281 -0.171875 2.78125 -0.765625 C 2.207031 -1.367188 1.921875 -2.238281 1.921875 -3.375 L 1.921875 -7.75 L 0.09375 -7.75 L 0.09375 -9.53125 L 1.921875 -9.53125 L 1.921875 -11.84375 L 4.28125 -12.640625 L 4.28125 -9.53125 L 6.8125 -9.53125 L 6.8125 -7.75 Z M 4.28125 -7.75 "/></g></g></g><g fill="#868282" fill-opacity="1"><g transform="translate(536.950685, 458.921774)"><g><path d="M 1.296875 -4.15625 L 1.296875 -6.03125 L 6.984375 -6.03125 L 6.984375 -4.15625 Z M 1.296875 -4.15625 "/></g></g></g><g fill="#868282" fill-opacity="1"><g transform="translate(545.21195, 458.921774)"><g><path d="M 4.28125 -7.75 L 4.28125 -3.484375 C 4.28125 -2.367188 4.800781 -1.8125 5.84375 -1.8125 C 6.132812 -1.8125 6.453125 -1.863281 6.796875 -1.96875 L 6.796875 -0.09375 C 6.378906 0.0507812 5.875 0.125 5.28125 0.125 C 4.195312 0.125 3.363281 -0.171875 2.78125 -0.765625 C 2.207031 -1.367188 1.921875 -2.238281 1.921875 -3.375 L 1.921875 -7.75 L 0.09375 -7.75 L 0.09375 -9.53125 L 1.921875 -9.53125 L 1.921875 -11.84375 L 4.28125 -12.640625 L 4.28125 -9.53125 L 6.8125 -9.53125 L 6.8125 -7.75 Z M 4.28125 -7.75 "/></g></g></g><g fill="#868282" fill-opacity="1"><g transform="translate(552.360406, 458.921774)"><g><path d="M 6.40625 -9.75 C 6.769531 -9.75 7.085938 -9.695312 7.359375 -9.59375 L 7.34375 -7.453125 C 6.9375 -7.609375 6.519531 -7.6875 6.09375 -7.6875 C 5.289062 -7.6875 4.675781 -7.453125 4.25 -6.984375 C 3.832031 -6.523438 3.625 -5.914062 3.625 -5.15625 L 3.625 0 L 1.28125 0 L 1.28125 -6.828125 C 1.28125 -7.828125 1.226562 -8.726562 1.125 -9.53125 L 3.34375 -9.53125 L 3.53125 -7.84375 C 3.769531 -8.457031 4.144531 -8.925781 4.65625 -9.25 C 5.175781 -9.582031 5.757812 -9.75 6.40625 -9.75 Z M 6.40625 -9.75 "/></g></g></g><g fill="#868282" fill-opacity="1"><g transform="translate(559.754047, 458.921774)"><g><path d="M 9.625 -4.640625 L 3.0625 -4.640625 C 3.101562 -3.617188 3.351562 -2.863281 3.8125 -2.375 C 4.269531 -1.894531 4.953125 -1.65625 5.859375 -1.65625 C 6.910156 -1.65625 7.878906 -1.992188 8.765625 -2.671875 L 9.453125 -1.0625 C 8.992188 -0.695312 8.4375 -0.398438 7.78125 -0.171875 C 7.125 0.046875 6.453125 0.15625 5.765625 0.15625 C 4.210938 0.15625 2.988281 -0.28125 2.09375 -1.15625 C 1.195312 -2.039062 0.75 -3.253906 0.75 -4.796875 C 0.75 -5.765625 0.941406 -6.625 1.328125 -7.375 C 1.722656 -8.125 2.269531 -8.707031 2.96875 -9.125 C 3.675781 -9.550781 4.476562 -9.765625 5.375 -9.765625 C 6.6875 -9.765625 7.722656 -9.335938 8.484375 -8.484375 C 9.242188 -7.640625 9.625 -6.476562 9.625 -5 Z M 5.4375 -8.078125 C 4.800781 -8.078125 4.285156 -7.890625 3.890625 -7.515625 C 3.492188 -7.140625 3.238281 -6.601562 3.125 -5.90625 L 7.5625 -5.90625 C 7.488281 -6.625 7.269531 -7.164062 6.90625 -7.53125 C 6.550781 -7.894531 6.0625 -8.078125 5.4375 -8.078125 Z M 5.4375 -8.078125 "/></g></g></g><g fill="#868282" fill-opacity="1"><g transform="translate(570.090061, 458.921774)"><g><path d="M 10.390625 -9.53125 L 10.390625 0 L 8.078125 0 L 8.078125 -1.53125 C 7.785156 -1 7.367188 -0.582031 6.828125 -0.28125 C 6.285156 0.0078125 5.671875 0.15625 4.984375 0.15625 C 4.148438 0.15625 3.410156 -0.046875 2.765625 -0.453125 C 2.128906 -0.859375 1.632812 -1.429688 1.28125 -2.171875 C 0.925781 -2.910156 0.75 -3.769531 0.75 -4.75 C 0.75 -5.726562 0.925781 -6.597656 1.28125 -7.359375 C 1.644531 -8.117188 2.144531 -8.707031 2.78125 -9.125 C 3.425781 -9.550781 4.160156 -9.765625 4.984375 -9.765625 C 5.671875 -9.765625 6.285156 -9.613281 6.828125 -9.3125 C 7.367188 -9.019531 7.785156 -8.613281 8.078125 -8.09375 L 8.078125 -9.53125 Z M 5.625 -1.703125 C 6.40625 -1.703125 7.007812 -1.96875 7.4375 -2.5 C 7.863281 -3.039062 8.078125 -3.804688 8.078125 -4.796875 C 8.078125 -5.796875 7.863281 -6.566406 7.4375 -7.109375 C 7.007812 -7.648438 6.394531 -7.921875 5.59375 -7.921875 C 4.820312 -7.921875 4.21875 -7.640625 3.78125 -7.078125 C 3.34375 -6.523438 3.125 -5.75 3.125 -4.75 C 3.125 -3.769531 3.34375 -3.015625 3.78125 -2.484375 C 4.21875 -1.960938 4.832031 -1.703125 5.625 -1.703125 Z M 5.625 -1.703125 "/></g></g></g><g fill="#868282" fill-opacity="1"><g transform="translate(581.765236, 458.921774)"><g><path d="M 4.28125 -7.75 L 4.28125 -3.484375 C 4.28125 -2.367188 4.800781 -1.8125 5.84375 -1.8125 C 6.132812 -1.8125 6.453125 -1.863281 6.796875 -1.96875 L 6.796875 -0.09375 C 6.378906 0.0507812 5.875 0.125 5.28125 0.125 C 4.195312 0.125 3.363281 -0.171875 2.78125 -0.765625 C 2.207031 -1.367188 1.921875 -2.238281 1.921875 -3.375 L 1.921875 -7.75 L 0.09375 -7.75 L 0.09375 -9.53125 L 1.921875 -9.53125 L 1.921875 -11.84375 L 4.28125 -12.640625 L 4.28125 -9.53125 L 6.8125 -9.53125 L 6.8125 -7.75 Z M 4.28125 -7.75 "/></g></g></g><g fill="#868282" fill-opacity="1"><g transform="translate(588.913691, 458.921774)"><g><path d="M 12.515625 -9.765625 C 13.597656 -9.765625 14.40625 -9.441406 14.9375 -8.796875 C 15.46875 -8.148438 15.734375 -7.164062 15.734375 -5.84375 L 15.734375 0 L 13.375 0 L 13.375 -5.765625 C 13.375 -6.523438 13.25 -7.070312 13 -7.40625 C 12.757812 -7.738281 12.351562 -7.90625 11.78125 -7.90625 C 11.132812 -7.90625 10.625 -7.675781 10.25 -7.21875 C 9.875 -6.757812 9.6875 -6.125 9.6875 -5.3125 L 9.6875 0 L 7.34375 0 L 7.34375 -5.765625 C 7.34375 -6.515625 7.210938 -7.054688 6.953125 -7.390625 C 6.691406 -7.734375 6.285156 -7.90625 5.734375 -7.90625 C 5.078125 -7.90625 4.5625 -7.675781 4.1875 -7.21875 C 3.8125 -6.757812 3.625 -6.125 3.625 -5.3125 L 3.625 0 L 1.28125 0 L 1.28125 -6.828125 C 1.28125 -7.828125 1.226562 -8.726562 1.125 -9.53125 L 3.34375 -9.53125 L 3.515625 -8.015625 C 3.785156 -8.578125 4.179688 -9.007812 4.703125 -9.3125 C 5.222656 -9.613281 5.820312 -9.765625 6.5 -9.765625 C 7.957031 -9.765625 8.910156 -9.160156 9.359375 -7.953125 C 9.660156 -8.523438 10.085938 -8.96875 10.640625 -9.28125 C 11.203125 -9.601562 11.828125 -9.765625 12.515625 -9.765625 Z M 12.515625 -9.765625 "/></g></g></g><g fill="#868282" fill-opacity="1"><g transform="translate(605.87004, 458.921774)"><g><path d="M 9.625 -4.640625 L 3.0625 -4.640625 C 3.101562 -3.617188 3.351562 -2.863281 3.8125 -2.375 C 4.269531 -1.894531 4.953125 -1.65625 5.859375 -1.65625 C 6.910156 -1.65625 7.878906 -1.992188 8.765625 -2.671875 L 9.453125 -1.0625 C 8.992188 -0.695312 8.4375 -0.398438 7.78125 -0.171875 C 7.125 0.046875 6.453125 0.15625 5.765625 0.15625 C 4.210938 0.15625 2.988281 -0.28125 2.09375 -1.15625 C 1.195312 -2.039062 0.75 -3.253906 0.75 -4.796875 C 0.75 -5.765625 0.941406 -6.625 1.328125 -7.375 C 1.722656 -8.125 2.269531 -8.707031 2.96875 -9.125 C 3.675781 -9.550781 4.476562 -9.765625 5.375 -9.765625 C 6.6875 -9.765625 7.722656 -9.335938 8.484375 -8.484375 C 9.242188 -7.640625 9.625 -6.476562 9.625 -5 Z M 5.4375 -8.078125 C 4.800781 -8.078125 4.285156 -7.890625 3.890625 -7.515625 C 3.492188 -7.140625 3.238281 -6.601562 3.125 -5.90625 L 7.5625 -5.90625 C 7.488281 -6.625 7.269531 -7.164062 6.90625 -7.53125 C 6.550781 -7.894531 6.0625 -8.078125 5.4375 -8.078125 Z M 5.4375 -8.078125 "/></g></g></g><g fill="#868282" fill-opacity="1"><g transform="translate(616.206055, 458.921774)"><g><path d="M 6.734375 -9.765625 C 9.003906 -9.765625 10.140625 -8.457031 10.140625 -5.84375 L 10.140625 0 L 7.78125 0 L 7.78125 -5.734375 C 7.78125 -6.484375 7.632812 -7.03125 7.34375 -7.375 C 7.0625 -7.726562 6.617188 -7.90625 6.015625 -7.90625 C 5.296875 -7.90625 4.71875 -7.675781 4.28125 -7.21875 C 3.84375 -6.757812 3.625 -6.148438 3.625 -5.390625 L 3.625 0 L 1.28125 0 L 1.28125 -6.828125 C 1.28125 -7.828125 1.226562 -8.726562 1.125 -9.53125 L 3.34375 -9.53125 L 3.515625 -7.953125 C 3.835938 -8.535156 4.273438 -8.984375 4.828125 -9.296875 C 5.390625 -9.609375 6.023438 -9.765625 6.734375 -9.765625 Z M 6.734375 -9.765625 "/></g></g></g><g fill="#868282" fill-opacity="1"><g transform="translate(627.579444, 458.921774)"><g><path d="M 4.28125 -7.75 L 4.28125 -3.484375 C 4.28125 -2.367188 4.800781 -1.8125 5.84375 -1.8125 C 6.132812 -1.8125 6.453125 -1.863281 6.796875 -1.96875 L 6.796875 -0.09375 C 6.378906 0.0507812 5.875 0.125 5.28125 0.125 C 4.195312 0.125 3.363281 -0.171875 2.78125 -0.765625 C 2.207031 -1.367188 1.921875 -2.238281 1.921875 -3.375 L 1.921875 -7.75 L 0.09375 -7.75 L 0.09375 -9.53125 L 1.921875 -9.53125 L 1.921875 -11.84375 L 4.28125 -12.640625 L 4.28125 -9.53125 L 6.8125 -9.53125 L 6.8125 -7.75 Z M 4.28125 -7.75 "/></g></g></g></svg>