<svg xmlns="http://www.w3.org/2000/svg" xmlns:xlink="http://www.w3.org/1999/xlink" width="1024" zoomAndPan="magnify" viewBox="0 0 768 576" height="768" preserveAspectRatio="xMidYMid meet" version="1.0"><defs><filter x="0%" y="0%" width="100%" height="100%" id="8071ed9274"><feColorMatrix values="0 0 0 0 1 0 0 0 0 1 0 0 0 0 1 0 0 0 1 0" color-interpolation-filters="sRGB"/></filter><g/><clipPath id="e1555077af"><path d="M 39.804688 21.382812 L 756.046875 21.382812 L 756.046875 434.632812 L 39.804688 434.632812 Z M 39.804688 21.382812 " clip-rule="nonzero"/></clipPath><clipPath id="161152d7a9"><path d="M 47.304688 21.382812 L 748.503906 21.382812 C 752.644531 21.382812 756.003906 24.742188 756.003906 28.882812 L 756.003906 426.921875 C 756.003906 431.0625 752.644531 434.421875 748.503906 434.421875 L 47.304688 434.421875 C 43.160156 434.421875 39.804688 431.0625 39.804688 426.921875 L 39.804688 28.882812 C 39.804688 24.742188 43.160156 21.382812 47.304688 21.382812 Z M 47.304688 21.382812 " clip-rule="nonzero"/></clipPath><mask id="342f120ae7"><g filter="url(#8071ed9274)"><rect x="-76.8" width="921.6" fill="#000000" y="-57.6" height="691.2" fill-opacity="0.58"/></g></mask><clipPath id="8656572c8b"><path d="M 4 5 L 206 5 L 206 102 L 4 102 Z M 4 5 " clip-rule="nonzero"/></clipPath><clipPath id="e8a4dc91f3"><path d="M 11.214844 0.957031 L 210.144531 77.917969 L 199.082031 106.511719 L 0.152344 29.550781 Z M 11.214844 0.957031 " clip-rule="nonzero"/></clipPath><clipPath id="1aad8a14b0"><path d="M 25.511719 6.488281 L 195.769531 72.355469 C 199.5625 73.824219 202.617188 76.738281 204.257812 80.453125 C 205.902344 84.171875 206.003906 88.394531 204.535156 92.183594 C 203.070312 95.976562 200.15625 99.03125 196.4375 100.671875 C 192.71875 102.316406 188.5 102.417969 184.707031 100.949219 L 14.449219 35.082031 C 10.660156 33.613281 7.605469 30.703125 5.960938 26.984375 C 4.316406 23.265625 4.21875 19.046875 5.683594 15.253906 C 7.152344 11.460938 10.066406 8.40625 13.785156 6.765625 C 17.503906 5.121094 21.722656 5.019531 25.511719 6.488281 Z M 25.511719 6.488281 " clip-rule="nonzero"/></clipPath><clipPath id="b1d3e3b3d3"><path d="M 65 33 L 75 33 L 75 45 L 65 45 Z M 65 33 " clip-rule="nonzero"/></clipPath><clipPath id="2f9a67609b"><path d="M 11.214844 0.957031 L 209.867188 77.808594 L 198.773438 106.488281 L 0.121094 29.636719 Z M 11.214844 0.957031 " clip-rule="nonzero"/></clipPath><clipPath id="9ab28d7ee7"><path d="M 74 36 L 84 36 L 84 48 L 74 48 Z M 74 36 " clip-rule="nonzero"/></clipPath><clipPath id="ba9d9a9ed3"><path d="M 11.214844 0.957031 L 209.867188 77.808594 L 198.773438 106.488281 L 0.121094 29.636719 Z M 11.214844 0.957031 " clip-rule="nonzero"/></clipPath><clipPath id="6c8d3c12e5"><path d="M 82 40 L 92 40 L 92 51 L 82 51 Z M 82 40 " clip-rule="nonzero"/></clipPath><clipPath id="da378d4a7f"><path d="M 11.214844 0.957031 L 209.867188 77.808594 L 198.773438 106.488281 L 0.121094 29.636719 Z M 11.214844 0.957031 " clip-rule="nonzero"/></clipPath><clipPath id="275f22c7d3"><path d="M 90 43 L 101 43 L 101 55 L 90 55 Z M 90 43 " clip-rule="nonzero"/></clipPath><clipPath id="c6733da281"><path d="M 11.214844 0.957031 L 209.867188 77.808594 L 198.773438 106.488281 L 0.121094 29.636719 Z M 11.214844 0.957031 " clip-rule="nonzero"/></clipPath><clipPath id="60923380e6"><path d="M 99 46 L 109 46 L 109 58 L 99 58 Z M 99 46 " clip-rule="nonzero"/></clipPath><clipPath id="456574edfc"><path d="M 11.214844 0.957031 L 209.867188 77.808594 L 198.773438 106.488281 L 0.121094 29.636719 Z M 11.214844 0.957031 " clip-rule="nonzero"/></clipPath><clipPath id="2031695456"><path d="M 108 50 L 120 50 L 120 62 L 108 62 Z M 108 50 " clip-rule="nonzero"/></clipPath><clipPath id="070d2eedf5"><path d="M 11.214844 0.957031 L 209.867188 77.808594 L 198.773438 106.488281 L 0.121094 29.636719 Z M 11.214844 0.957031 " clip-rule="nonzero"/></clipPath><clipPath id="5af6062517"><path d="M 119 54 L 128 54 L 128 65 L 119 65 Z M 119 54 " clip-rule="nonzero"/></clipPath><clipPath id="6f27930445"><path d="M 11.214844 0.957031 L 209.867188 77.808594 L 198.773438 106.488281 L 0.121094 29.636719 Z M 11.214844 0.957031 " clip-rule="nonzero"/></clipPath><clipPath id="115527f4b2"><path d="M 127 57 L 137 57 L 137 69 L 127 69 Z M 127 57 " clip-rule="nonzero"/></clipPath><clipPath id="f0bf7dd90e"><path d="M 11.214844 0.957031 L 209.867188 77.808594 L 198.773438 106.488281 L 0.121094 29.636719 Z M 11.214844 0.957031 " clip-rule="nonzero"/></clipPath><clipPath id="38e25ea787"><path d="M 136 60 L 146 60 L 146 72 L 136 72 Z M 136 60 " clip-rule="nonzero"/></clipPath><clipPath id="9120bd461d"><path d="M 11.214844 0.957031 L 209.867188 77.808594 L 198.773438 106.488281 L 0.121094 29.636719 Z M 11.214844 0.957031 " clip-rule="nonzero"/></clipPath><clipPath id="f637b8e771"><rect x="0" width="211" y="0" height="107"/></clipPath><mask id="3bf3adad33"><g filter="url(#8071ed9274)"><rect x="-76.8" width="921.6" fill="#000000" y="-57.6" height="691.2" fill-opacity="0.57"/></g></mask><clipPath id="9115f7f44c"><path d="M 1.046875 0.457031 L 98.707031 0.457031 L 98.707031 53.199219 L 1.046875 53.199219 Z M 1.046875 0.457031 " clip-rule="nonzero"/></clipPath><clipPath id="f1cf33bc72"><path d="M 15.296875 0.457031 L 84.414062 0.457031 C 92.285156 0.457031 98.664062 6.835938 98.664062 14.707031 L 98.664062 38.949219 C 98.664062 46.820312 92.285156 53.199219 84.414062 53.199219 L 15.296875 53.199219 C 7.429688 53.199219 1.046875 46.820312 1.046875 38.949219 L 1.046875 14.707031 C 1.046875 6.835938 7.429688 0.457031 15.296875 0.457031 Z M 15.296875 0.457031 " clip-rule="nonzero"/></clipPath><clipPath id="bfcb978cd7"><rect x="0" width="99" y="0" height="54"/></clipPath><clipPath id="24a3670d1e"><path d="M 64.933594 206.382812 L 118.933594 206.382812 L 118.933594 261 L 64.933594 261 Z M 64.933594 206.382812 " clip-rule="nonzero"/></clipPath><clipPath id="a8be1f8303"><path d="M 76 245 L 108 245 L 108 265.632812 L 76 265.632812 Z M 76 245 " clip-rule="nonzero"/></clipPath><clipPath id="a310d304e0"><path d="M 545.164062 362.027344 L 599 362.027344 L 599 416 L 545.164062 416 Z M 545.164062 362.027344 " clip-rule="nonzero"/></clipPath><clipPath id="23bc8a7739"><path d="M 556 400 L 588 400 L 588 421.277344 L 556 421.277344 Z M 556 400 " clip-rule="nonzero"/></clipPath></defs><rect x="-76.8" width="921.6" fill="#ffffff" y="-57.6" height="691.2" fill-opacity="1"/><rect x="-76.8" width="921.6" fill="#ffffff" y="-57.6" height="691.2" fill-opacity="1"/><g clip-path="url(#e1555077af)"><g clip-path="url(#161152d7a9)"><path stroke-linecap="butt" transform="matrix(0.75, 0, 0, 0.75, 39.804293, 21.382519)" fill="none" stroke-linejoin="miter" d="M 10.000526 0.000391188 L 944.932797 0.000391188 C 950.45363 0.000391188 954.932797 4.479558 954.932797 10.000391 L 954.932797 540.719129 C 954.932797 546.239962 950.45363 550.719129 944.932797 550.719129 L 10.000526 550.719129 C 4.474484 550.719129 0.000526238 546.239962 0.000526238 540.719129 L 0.000526238 10.000391 C 0.000526238 4.479558 4.474484 0.000391188 10.000526 0.000391188 Z M 10.000526 0.000391188 " stroke="#d9d9d9" stroke-width="4" stroke-opacity="1" stroke-miterlimit="4"/></g></g><path stroke-linecap="butt" transform="matrix(0.699358, 0.270922, -0.270922, 0.699358, 131.727914, 237.168761)" fill="none" stroke-linejoin="miter" d="M 0.0012641 1.99798 L 574.620412 2.00146 " stroke="#868282" stroke-width="4" stroke-opacity="1" stroke-miterlimit="4"/><path stroke-linecap="round" transform="matrix(0.699358, 0.270922, -0.270922, 0.699358, 131.727914, 237.168761)" fill-opacity="1" fill="#868282" fill-rule="nonzero" stroke-linejoin="round" d="M 575.619306 -3.99891 L 583.618473 2.001064 L 575.619834 7.998504 Z M 575.619306 -3.99891 " stroke="#868282" stroke-width="4" stroke-opacity="1" stroke-miterlimit="4"/><path stroke-linecap="butt" transform="matrix(0, 0.75, -0.75, 0, 618.598966, 225.677588)" fill="none" stroke-linejoin="miter" d="M -0.00240926 1.001747 L 232.455934 1.001747 " stroke="#4f494b" stroke-width="2" stroke-opacity="1" stroke-miterlimit="4"/><path stroke-linecap="butt" transform="matrix(-0.75, 0.000000001309, -0.000000001309, -0.75, 627.904486, 312.303523)" fill="none" stroke-linejoin="miter" d="M -0.00235222 0.998447 L 12.419523 0.998447 " stroke="#4f494b" stroke-width="2" stroke-opacity="1" stroke-miterlimit="4"/><path stroke-linecap="butt" transform="matrix(-0.75, 0.000000001309, -0.000000001309, -0.75, 618.591478, 227.176885)" fill="none" stroke-linejoin="miter" d="M 0.0021793 1.001472 L 12.418846 1.001472 " stroke="#4f494b" stroke-width="2" stroke-opacity="1" stroke-miterlimit="4"/><path stroke-linecap="butt" transform="matrix(-0.75, 0.000000001309, -0.000000001309, -0.75, 618.591478, 400.037348)" fill="none" stroke-linejoin="miter" d="M 0.0021793 0.997714 L 12.418846 0.997714 " stroke="#4f494b" stroke-width="2" stroke-opacity="1" stroke-miterlimit="4"/><g mask="url(#342f120ae7)"><g transform="matrix(1, 0, 0, 1, 207, 279)"><g clip-path="url(#f637b8e771)"><g clip-path="url(#8656572c8b)"><g clip-path="url(#e8a4dc91f3)"><g clip-path="url(#1aad8a14b0)"><path fill="#004a6f" d="M 11.214844 0.957031 L 210.035156 77.875 L 198.972656 106.46875 L 0.152344 29.550781 Z M 11.214844 0.957031 " fill-opacity="1" fill-rule="nonzero"/></g></g></g><g clip-path="url(#b1d3e3b3d3)"><g clip-path="url(#2f9a67609b)"><g fill="#ffffff" fill-opacity="1"><g transform="translate(65.201833, 41.946469)"><g><path d="M 9.0625 -4.734375 L 6.921875 -5.578125 L 4.140625 1.59375 L 2.40625 0.9375 L 5.1875 -6.234375 L 3.09375 -7.046875 L 3.65625 -8.5 L 9.625 -6.1875 Z M 9.0625 -4.734375 "/></g></g></g></g></g><g clip-path="url(#9ab28d7ee7)"><g clip-path="url(#ba9d9a9ed3)"><g fill="#ffffff" fill-opacity="1"><g transform="translate(73.674351, 45.224306)"><g><path d="M 4.53125 -1.859375 L 3.65625 -2.203125 L 2.4375 0.9375 L 0.703125 0.265625 L 4.046875 -8.359375 L 6.8125 -7.28125 C 7.6875 -6.945312 8.269531 -6.457031 8.5625 -5.8125 C 8.863281 -5.164062 8.851562 -4.429688 8.53125 -3.609375 C 8.082031 -2.460938 7.351562 -1.820312 6.34375 -1.6875 L 6.5 2.40625 L 6.46875 2.5 L 4.609375 1.78125 Z M 4.21875 -3.671875 L 5.203125 -3.28125 C 5.554688 -3.144531 5.863281 -3.15625 6.125 -3.3125 C 6.382812 -3.476562 6.585938 -3.753906 6.734375 -4.140625 C 7.078125 -5.003906 6.910156 -5.566406 6.234375 -5.828125 L 5.21875 -6.234375 Z M 4.21875 -3.671875 "/></g></g></g></g></g><g clip-path="url(#6c8d3c12e5)"><g clip-path="url(#da378d4a7f)"><g fill="#ffffff" fill-opacity="1"><g transform="translate(82.277071, 48.552515)"><g><path d="M 6.578125 -1.75 L 3.875 -2.796875 L 3 -0.5 L 6.203125 0.75 L 5.640625 2.1875 L 0.703125 0.265625 L 4.046875 -8.359375 L 8.96875 -6.453125 L 8.40625 -5 L 5.21875 -6.234375 L 4.421875 -4.1875 L 7.125 -3.140625 Z M 6.578125 -1.75 "/></g></g></g></g></g><g clip-path="url(#275f22c7d3)"><g clip-path="url(#c6733da281)"><g fill="#ffffff" fill-opacity="1"><g transform="translate(90.116339, 51.585361)"><g><path d="M 5.5 0.09375 L 3.125 -0.828125 L 1.96875 0.765625 L 0.125 0.046875 L 6.171875 -7.53125 L 7.765625 -6.921875 L 7.125 2.75 L 5.28125 2.046875 Z M 4.0625 -2.125 L 5.671875 -1.515625 L 6.046875 -4.890625 Z M 4.0625 -2.125 "/></g></g></g></g></g><g clip-path="url(#60923380e6)"><g clip-path="url(#456574edfc)"><g fill="#ffffff" fill-opacity="1"><g transform="translate(99.245792, 55.117352)"><g><path d="M 9.0625 -4.734375 L 6.921875 -5.578125 L 4.140625 1.59375 L 2.40625 0.9375 L 5.1875 -6.234375 L 3.09375 -7.046875 L 3.65625 -8.5 L 9.625 -6.1875 Z M 9.0625 -4.734375 "/></g></g></g></g></g><g clip-path="url(#2031695456)"><g clip-path="url(#070d2eedf5)"><g fill="#ffffff" fill-opacity="1"><g transform="translate(107.71831, 58.39519)"><g><path d="M 6.3125 -7.46875 L 5.515625 -0.609375 L 9.5625 -6.21875 L 11.84375 -5.34375 L 8.5 3.28125 L 6.75 2.609375 L 7.65625 0.28125 L 9.203125 -3.265625 L 5.171875 2 L 4 1.546875 L 4.5625 -5.0625 L 3.34375 -1.390625 L 2.4375 0.9375 L 0.703125 0.265625 L 4.046875 -8.359375 Z M 6.3125 -7.46875 "/></g></g></g></g></g><g clip-path="url(#5af6062517)"><g clip-path="url(#6f27930445)"><g fill="#ffffff" fill-opacity="1"><g transform="translate(118.800794, 62.682767)"><g><path d="M 6.578125 -1.75 L 3.875 -2.796875 L 3 -0.5 L 6.203125 0.75 L 5.640625 2.1875 L 0.703125 0.265625 L 4.046875 -8.359375 L 8.96875 -6.453125 L 8.40625 -5 L 5.21875 -6.234375 L 4.421875 -4.1875 L 7.125 -3.140625 Z M 6.578125 -1.75 "/></g></g></g></g></g><g clip-path="url(#115527f4b2)"><g clip-path="url(#f0bf7dd90e)"><g fill="#ffffff" fill-opacity="1"><g transform="translate(126.640062, 65.715613)"><g><path d="M 6.71875 2.59375 L 4.984375 1.921875 L 4.625 -4.71875 L 2.4375 0.9375 L 0.703125 0.265625 L 4.046875 -8.359375 L 5.78125 -7.6875 L 6.125 -1.03125 L 8.328125 -6.703125 L 10.0625 -6.03125 Z M 6.71875 2.59375 "/></g></g></g></g></g><g clip-path="url(#38e25ea787)"><g clip-path="url(#9120bd461d)"><g fill="#ffffff" fill-opacity="1"><g transform="translate(135.952975, 69.318581)"><g><path d="M 9.0625 -4.734375 L 6.921875 -5.578125 L 4.140625 1.59375 L 2.40625 0.9375 L 5.1875 -6.234375 L 3.09375 -7.046875 L 3.65625 -8.5 L 9.625 -6.1875 Z M 9.0625 -4.734375 "/></g></g></g></g></g></g></g></g><g mask="url(#3bf3adad33)"><g transform="matrix(1, 0, 0, 1, 637, 284)"><g clip-path="url(#bfcb978cd7)"><g clip-path="url(#9115f7f44c)"><g clip-path="url(#f1cf33bc72)"><path fill="#a50e58" d="M 1.046875 0.457031 L 98.707031 0.457031 L 98.707031 53.199219 L 1.046875 53.199219 Z M 1.046875 0.457031 " fill-opacity="1" fill-rule="nonzero"/></g></g><g fill="#ffffff" fill-opacity="1"><g transform="translate(29.015441, 21.455789)"><g><path d="M 5.515625 -3.765625 L 2.609375 -3.765625 L 2.609375 0 L 0.75 0 L 0.75 -9.25 L 5.859375 -9.25 L 5.859375 -7.6875 L 2.609375 -7.6875 L 2.609375 -5.3125 L 5.515625 -5.3125 Z M 5.515625 -3.765625 "/></g></g></g><g fill="#ffffff" fill-opacity="1"><g transform="translate(37.224208, 21.455789)"><g><path d="M 5.15625 -1.890625 L 2.609375 -1.890625 L 2.109375 0 L 0.140625 0 L 3.03125 -9.25 L 4.734375 -9.25 L 7.640625 0 L 5.65625 0 Z M 3.015625 -3.453125 L 4.734375 -3.453125 L 3.875 -6.734375 Z M 3.015625 -3.453125 "/></g></g></g><g fill="#ffffff" fill-opacity="1"><g transform="translate(47.013071, 21.455789)"><g><path d="M 2.609375 -1.546875 L 5.890625 -1.546875 L 5.890625 0 L 0.75 0 L 0.75 -9.25 L 2.609375 -9.25 Z M 2.609375 -1.546875 "/></g></g></g><g fill="#ffffff" fill-opacity="1"><g transform="translate(55.259912, 21.455789)"><g><path d="M 4.640625 -2.421875 C 4.640625 -2.796875 4.539062 -3.078125 4.34375 -3.265625 C 4.15625 -3.460938 3.8125 -3.664062 3.3125 -3.875 C 2.382812 -4.226562 1.71875 -4.640625 1.3125 -5.109375 C 0.90625 -5.585938 0.703125 -6.144531 0.703125 -6.78125 C 0.703125 -7.5625 0.976562 -8.1875 1.53125 -8.65625 C 2.082031 -9.132812 2.78125 -9.375 3.625 -9.375 C 4.195312 -9.375 4.703125 -9.253906 5.140625 -9.015625 C 5.585938 -8.773438 5.929688 -8.4375 6.171875 -8 C 6.410156 -7.5625 6.53125 -7.066406 6.53125 -6.515625 L 4.671875 -6.515625 C 4.671875 -6.941406 4.578125 -7.269531 4.390625 -7.5 C 4.210938 -7.726562 3.945312 -7.84375 3.59375 -7.84375 C 3.269531 -7.84375 3.015625 -7.742188 2.828125 -7.546875 C 2.648438 -7.359375 2.5625 -7.097656 2.5625 -6.765625 C 2.5625 -6.515625 2.660156 -6.285156 2.859375 -6.078125 C 3.066406 -5.878906 3.429688 -5.671875 3.953125 -5.453125 C 4.847656 -5.117188 5.5 -4.710938 5.90625 -4.234375 C 6.320312 -3.765625 6.53125 -3.164062 6.53125 -2.4375 C 6.53125 -1.632812 6.269531 -1.003906 5.75 -0.546875 C 5.238281 -0.0976562 4.546875 0.125 3.671875 0.125 C 3.078125 0.125 2.53125 0.00390625 2.03125 -0.234375 C 1.539062 -0.484375 1.15625 -0.835938 0.875 -1.296875 C 0.601562 -1.753906 0.46875 -2.289062 0.46875 -2.90625 L 2.34375 -2.90625 C 2.34375 -2.375 2.445312 -1.988281 2.65625 -1.75 C 2.863281 -1.507812 3.203125 -1.390625 3.671875 -1.390625 C 4.316406 -1.390625 4.640625 -1.734375 4.640625 -2.421875 Z M 4.640625 -2.421875 "/></g></g></g><g fill="#ffffff" fill-opacity="1"><g transform="translate(64.306318, 21.455789)"><g><path d="M 5.515625 -4 L 2.609375 -4 L 2.609375 -1.546875 L 6.046875 -1.546875 L 6.046875 0 L 0.75 0 L 0.75 -9.25 L 6.03125 -9.25 L 6.03125 -7.6875 L 2.609375 -7.6875 L 2.609375 -5.5 L 5.515625 -5.5 Z M 5.515625 -4 "/></g></g></g><g fill="#ffffff" fill-opacity="1"><g transform="translate(72.714658, 21.455789)"><g/></g></g><g fill="#ffffff" fill-opacity="1"><g transform="translate(24.984191, 39.455788)"><g><path d="M 5.515625 -4 L 2.609375 -4 L 2.609375 -1.546875 L 6.046875 -1.546875 L 6.046875 0 L 0.75 0 L 0.75 -9.25 L 6.03125 -9.25 L 6.03125 -7.6875 L 2.609375 -7.6875 L 2.609375 -5.5 L 5.515625 -5.5 Z M 5.515625 -4 "/></g></g></g><g fill="#ffffff" fill-opacity="1"><g transform="translate(33.389682, 39.455788)"><g><path d="M 5.515625 -3.765625 L 2.609375 -3.765625 L 2.609375 0 L 0.75 0 L 0.75 -9.25 L 5.859375 -9.25 L 5.859375 -7.6875 L 2.609375 -7.6875 L 2.609375 -5.3125 L 5.515625 -5.3125 Z M 5.515625 -3.765625 "/></g></g></g><g fill="#ffffff" fill-opacity="1"><g transform="translate(41.598448, 39.455788)"><g><path d="M 5.515625 -3.765625 L 2.609375 -3.765625 L 2.609375 0 L 0.75 0 L 0.75 -9.25 L 5.859375 -9.25 L 5.859375 -7.6875 L 2.609375 -7.6875 L 2.609375 -5.3125 L 5.515625 -5.3125 Z M 5.515625 -3.765625 "/></g></g></g><g fill="#ffffff" fill-opacity="1"><g transform="translate(49.807215, 39.455788)"><g><path d="M 5.515625 -4 L 2.609375 -4 L 2.609375 -1.546875 L 6.046875 -1.546875 L 6.046875 0 L 0.75 0 L 0.75 -9.25 L 6.03125 -9.25 L 6.03125 -7.6875 L 2.609375 -7.6875 L 2.609375 -5.5 L 5.515625 -5.5 Z M 5.515625 -4 "/></g></g></g><g fill="#ffffff" fill-opacity="1"><g transform="translate(58.212706, 39.455788)"><g><path d="M 7.015625 -3.078125 C 6.960938 -2.023438 6.660156 -1.226562 6.109375 -0.6875 C 5.566406 -0.144531 4.800781 0.125 3.8125 0.125 C 2.757812 0.125 1.957031 -0.21875 1.40625 -0.90625 C 0.851562 -1.59375 0.578125 -2.570312 0.578125 -3.84375 L 0.578125 -5.40625 C 0.578125 -6.675781 0.863281 -7.65625 1.4375 -8.34375 C 2.007812 -9.03125 2.804688 -9.375 3.828125 -9.375 C 4.835938 -9.375 5.601562 -9.09375 6.125 -8.53125 C 6.644531 -7.96875 6.941406 -7.15625 7.015625 -6.09375 L 5.140625 -6.09375 C 5.128906 -6.75 5.03125 -7.203125 4.84375 -7.453125 C 4.664062 -7.703125 4.328125 -7.828125 3.828125 -7.828125 C 3.328125 -7.828125 2.972656 -7.648438 2.765625 -7.296875 C 2.566406 -6.941406 2.457031 -6.367188 2.4375 -5.578125 L 2.4375 -3.828125 C 2.4375 -2.910156 2.539062 -2.28125 2.75 -1.9375 C 2.957031 -1.59375 3.3125 -1.421875 3.8125 -1.421875 C 4.300781 -1.421875 4.640625 -1.539062 4.828125 -1.78125 C 5.015625 -2.019531 5.117188 -2.453125 5.140625 -3.078125 Z M 7.015625 -3.078125 "/></g></g></g><g fill="#ffffff" fill-opacity="1"><g transform="translate(67.652547, 39.455788)"><g><path d="M 6.734375 -7.6875 L 4.4375 -7.6875 L 4.4375 0 L 2.578125 0 L 2.578125 -7.6875 L 0.328125 -7.6875 L 0.328125 -9.25 L 6.734375 -9.25 Z M 6.734375 -7.6875 "/></g></g></g></g></g></g><g clip-path="url(#24a3670d1e)"><path fill="#91adbb" d="M 118.675781 233.253906 C 118.675781 248.089844 106.648438 260.117188 91.8125 260.117188 C 76.976562 260.117188 64.953125 248.089844 64.953125 233.253906 C 64.949219 218.417969 76.976562 206.394531 91.8125 206.394531 C 106.648438 206.390625 118.675781 218.417969 118.675781 233.253906 " fill-opacity="1" fill-rule="nonzero"/></g><path fill="#331520" d="M 100.246094 216.976562 C 100.246094 221.558594 96.53125 225.273438 91.949219 225.273438 C 87.367188 225.273438 83.652344 221.558594 83.652344 216.976562 C 83.652344 212.394531 87.367188 208.679688 91.949219 208.679688 C 96.53125 208.679688 100.246094 212.394531 100.246094 216.976562 " fill-opacity="1" fill-rule="nonzero"/><g clip-path="url(#a8be1f8303)"><path fill="#ffffff" d="M 107.484375 260.191406 C 106.15625 261.183594 104.730469 262.050781 103.222656 262.777344 C 102.996094 262.890625 102.765625 262.996094 102.53125 263.101562 C 99.261719 264.566406 95.632812 265.382812 91.8125 265.382812 C 87.992188 265.382812 84.367188 264.566406 81.097656 263.101562 C 80.863281 262.996094 80.628906 262.890625 80.402344 262.777344 C 78.894531 262.050781 77.46875 261.183594 76.140625 260.191406 C 76.375 254.996094 79.132812 250.460938 83.21875 247.78125 C 85.6875 246.164062 88.640625 245.222656 91.8125 245.222656 C 92.296875 245.222656 92.777344 245.246094 93.246094 245.289062 C 95.875 245.523438 98.316406 246.410156 100.40625 247.78125 C 102.289062 249.015625 103.886719 250.644531 105.085938 252.542969 C 106.496094 254.777344 107.359375 257.390625 107.484375 260.191406 " fill-opacity="1" fill-rule="nonzero"/></g><path fill="#ba5c21" d="M 100.40625 247.78125 C 100.167969 249.59375 99.367188 251.230469 98.1875 252.511719 C 96.601562 254.226562 94.335938 255.300781 91.8125 255.300781 C 87.773438 255.300781 84.382812 252.539062 83.417969 248.800781 C 83.332031 248.46875 83.265625 248.128906 83.21875 247.78125 C 85.6875 246.164062 88.640625 245.222656 91.8125 245.222656 C 92.296875 245.222656 92.777344 245.242188 93.25 245.289062 C 93.332031 245.292969 93.414062 245.304688 93.492188 245.3125 C 93.542969 245.316406 93.59375 245.320312 93.644531 245.328125 C 93.703125 245.332031 93.757812 245.34375 93.8125 245.347656 C 93.847656 245.351562 93.882812 245.359375 93.917969 245.363281 C 93.964844 245.367188 94.019531 245.375 94.070312 245.382812 C 94.109375 245.386719 94.148438 245.394531 94.1875 245.402344 C 94.222656 245.40625 94.257812 245.410156 94.292969 245.417969 C 94.351562 245.425781 94.40625 245.4375 94.464844 245.445312 C 94.714844 245.488281 94.960938 245.535156 95.207031 245.589844 L 95.371094 245.625 C 95.402344 245.636719 95.433594 245.640625 95.464844 245.648438 C 95.523438 245.664062 95.582031 245.675781 95.640625 245.691406 C 95.648438 245.695312 95.660156 245.695312 95.664062 245.699219 C 95.738281 245.71875 95.8125 245.734375 95.882812 245.757812 C 95.960938 245.773438 96.039062 245.796875 96.113281 245.820312 C 96.203125 245.84375 96.289062 245.867188 96.375 245.894531 C 96.441406 245.914062 96.507812 245.9375 96.574219 245.957031 C 96.617188 245.972656 96.664062 245.984375 96.703125 246 C 96.773438 246.019531 96.84375 246.046875 96.910156 246.070312 C 96.996094 246.097656 97.082031 246.128906 97.164062 246.15625 C 97.171875 246.160156 97.175781 246.164062 97.183594 246.164062 C 97.269531 246.195312 97.355469 246.226562 97.441406 246.261719 C 97.503906 246.285156 97.570312 246.308594 97.632812 246.335938 C 97.804688 246.40625 97.96875 246.472656 98.132812 246.546875 L 98.347656 246.644531 C 98.414062 246.671875 98.480469 246.703125 98.542969 246.734375 C 98.605469 246.761719 98.660156 246.789062 98.71875 246.820312 C 98.773438 246.847656 98.828125 246.875 98.878906 246.902344 C 98.914062 246.917969 98.949219 246.933594 98.984375 246.953125 C 99.128906 247.023438 99.265625 247.101562 99.402344 247.175781 C 99.453125 247.203125 99.503906 247.230469 99.550781 247.257812 C 99.582031 247.277344 99.613281 247.296875 99.644531 247.3125 L 99.957031 247.5 C 100.03125 247.542969 100.101562 247.585938 100.171875 247.632812 C 100.253906 247.683594 100.328125 247.730469 100.40625 247.78125 " fill-opacity="1" fill-rule="nonzero"/><path fill="#ba5c21" d="M 94.832031 241.707031 L 94.832031 247.648438 C 94.832031 249.152344 93.605469 250.382812 92.101562 250.382812 L 91.523438 250.382812 C 90.023438 250.382812 88.792969 249.152344 88.792969 247.648438 L 88.792969 241.707031 C 88.792969 240.203125 90.023438 238.972656 91.523438 238.972656 L 92.101562 238.972656 C 93.605469 238.972656 94.832031 240.203125 94.832031 241.707031 " fill-opacity="1" fill-rule="nonzero"/><path fill="#9e392b" d="M 94.832031 241.707031 L 94.832031 244.851562 C 93.9375 245.351562 92.984375 245.640625 92.015625 245.640625 C 90.875 245.640625 89.789062 245.324219 88.792969 244.769531 L 88.792969 241.707031 C 88.792969 240.203125 90.023438 238.972656 91.523438 238.972656 L 92.101562 238.972656 C 93.605469 238.972656 94.832031 240.203125 94.832031 241.707031 " fill-opacity="1" fill-rule="nonzero"/><path fill="#ba5c21" d="M 101.125 238.023438 C 101.125 238.023438 102.914062 237.414062 104.058594 235.421875 C 105.300781 233.253906 104.519531 231.90625 104.273438 231.613281 C 103.601562 230.8125 102.5625 231.328125 102.390625 231.613281 C 102.222656 231.898438 99.746094 236.398438 101.125 238.023438 " fill-opacity="1" fill-rule="nonzero"/><path fill="#9e392b" d="M 102.878906 232.324219 C 102.878906 232.324219 104.015625 232.46875 103.617188 234.0625 C 103.214844 235.660156 102.167969 236.292969 100.742188 237.109375 C 99.316406 237.925781 101.453125 232.648438 102.878906 232.324219 " fill-opacity="1" fill-rule="nonzero"/><path fill="#ba5c21" d="M 82.964844 238.023438 C 82.964844 238.023438 81.175781 237.414062 80.035156 235.421875 C 78.789062 233.253906 79.570312 231.90625 79.816406 231.613281 C 80.488281 230.8125 81.527344 231.328125 81.699219 231.613281 C 81.867188 231.898438 84.347656 236.398438 82.964844 238.023438 " fill-opacity="1" fill-rule="nonzero"/><path fill="#9e392b" d="M 81.210938 232.324219 C 81.210938 232.324219 80.078125 232.46875 80.476562 234.0625 C 80.875 235.660156 81.921875 236.292969 83.347656 237.109375 C 84.773438 237.925781 82.636719 232.648438 81.210938 232.324219 " fill-opacity="1" fill-rule="nonzero"/><path fill="#ba5c21" d="M 102.878906 231.269531 C 102.878906 224.714844 98.039062 219.398438 92.070312 219.398438 C 86.101562 219.398438 81.257812 224.714844 81.257812 231.269531 C 81.257812 237.824219 86.101562 244.679688 92.070312 244.679688 C 97.679688 244.679688 102.878906 237.769531 102.878906 231.269531 " fill-opacity="1" fill-rule="nonzero"/><path fill="#331520" d="M 93.042969 226.480469 C 93.042969 226.480469 95.078125 233.023438 102.726562 232.375 C 102.726562 232.375 104.0625 230.445312 103.609375 226.246094 C 103.101562 221.511719 98.90625 217.53125 92.070312 218.957031 C 92.070312 218.957031 91.445312 222.320312 93.042969 226.480469 " fill-opacity="1" fill-rule="nonzero"/><path fill="#331520" d="M 93.386719 219.398438 C 93.386719 219.398438 93.667969 218.160156 92.644531 217.1875 C 91.617188 216.21875 78.027344 218.210938 81.257812 231.269531 C 81.257812 231.269531 84.425781 223.460938 92.8125 222.773438 L 93.386719 219.398438 " fill-opacity="1" fill-rule="nonzero"/><g fill="#868282" fill-opacity="1"><g transform="translate(23.391531, 349.246206)"><g><path d="M -7.265625 -12.65625 L -0.8125 -12.65625 C -0.507812 -12.039062 -0.269531 -11.296875 -0.09375 -10.421875 C 0.0820312 -9.554688 0.171875 -8.671875 0.171875 -7.765625 C 0.171875 -6.390625 -0.101562 -5.191406 -0.65625 -4.171875 C -1.207031 -3.148438 -2 -2.367188 -3.03125 -1.828125 C -4.0625 -1.285156 -5.296875 -1.015625 -6.734375 -1.015625 C -8.140625 -1.015625 -9.359375 -1.285156 -10.390625 -1.828125 C -11.421875 -2.367188 -12.210938 -3.140625 -12.765625 -4.140625 C -13.316406 -5.140625 -13.59375 -6.3125 -13.59375 -7.65625 C -13.59375 -8.601562 -13.453125 -9.488281 -13.171875 -10.3125 C -12.898438 -11.132812 -12.515625 -11.820312 -12.015625 -12.375 L -10.234375 -11.546875 C -10.722656 -10.910156 -11.078125 -10.289062 -11.296875 -9.6875 C -11.515625 -9.082031 -11.625 -8.425781 -11.625 -7.71875 C -11.625 -6.332031 -11.207031 -5.285156 -10.375 -4.578125 C -9.539062 -3.867188 -8.328125 -3.515625 -6.734375 -3.515625 C -5.085938 -3.515625 -3.84375 -3.878906 -3 -4.609375 C -2.164062 -5.335938 -1.75 -6.421875 -1.75 -7.859375 C -1.75 -8.742188 -1.867188 -9.613281 -2.109375 -10.46875 L -5.5 -10.46875 L -5.5 -7.5625 L -7.265625 -7.5625 Z M -7.265625 -12.65625 "/></g></g></g><g fill="#868282" fill-opacity="1"><g transform="translate(23.391531, 335.307664)"><g><path d="M 0.15625 -5.59375 C 0.15625 -4.632812 -0.046875 -3.785156 -0.453125 -3.046875 C -0.859375 -2.304688 -1.429688 -1.738281 -2.171875 -1.34375 C -2.921875 -0.945312 -3.800781 -0.75 -4.8125 -0.75 C -5.8125 -0.75 -6.6875 -0.945312 -7.4375 -1.34375 C -8.1875 -1.738281 -8.757812 -2.304688 -9.15625 -3.046875 C -9.5625 -3.785156 -9.765625 -4.632812 -9.765625 -5.59375 C -9.765625 -6.550781 -9.5625 -7.394531 -9.15625 -8.125 C -8.757812 -8.851562 -8.1875 -9.414062 -7.4375 -9.8125 C -6.6875 -10.207031 -5.8125 -10.40625 -4.8125 -10.40625 C -3.800781 -10.40625 -2.921875 -10.207031 -2.171875 -9.8125 C -1.429688 -9.414062 -0.859375 -8.851562 -0.453125 -8.125 C -0.046875 -7.394531 0.15625 -6.550781 0.15625 -5.59375 Z M -1.703125 -5.578125 C -1.703125 -6.390625 -1.960938 -7.003906 -2.484375 -7.421875 C -3.003906 -7.835938 -3.78125 -8.046875 -4.8125 -8.046875 C -5.832031 -8.046875 -6.609375 -7.832031 -7.140625 -7.40625 C -7.671875 -6.976562 -7.9375 -6.375 -7.9375 -5.59375 C -7.9375 -4.800781 -7.671875 -4.191406 -7.140625 -3.765625 C -6.609375 -3.335938 -5.832031 -3.125 -4.8125 -3.125 C -3.78125 -3.125 -3.003906 -3.332031 -2.484375 -3.75 C -1.960938 -4.175781 -1.703125 -4.785156 -1.703125 -5.578125 Z M -1.703125 -5.578125 "/></g></g></g><g fill="#868282" fill-opacity="1"><g transform="translate(23.391531, 324.141743)"><g><path d="M 0.15625 -5.59375 C 0.15625 -4.632812 -0.046875 -3.785156 -0.453125 -3.046875 C -0.859375 -2.304688 -1.429688 -1.738281 -2.171875 -1.34375 C -2.921875 -0.945312 -3.800781 -0.75 -4.8125 -0.75 C -5.8125 -0.75 -6.6875 -0.945312 -7.4375 -1.34375 C -8.1875 -1.738281 -8.757812 -2.304688 -9.15625 -3.046875 C -9.5625 -3.785156 -9.765625 -4.632812 -9.765625 -5.59375 C -9.765625 -6.550781 -9.5625 -7.394531 -9.15625 -8.125 C -8.757812 -8.851562 -8.1875 -9.414062 -7.4375 -9.8125 C -6.6875 -10.207031 -5.8125 -10.40625 -4.8125 -10.40625 C -3.800781 -10.40625 -2.921875 -10.207031 -2.171875 -9.8125 C -1.429688 -9.414062 -0.859375 -8.851562 -0.453125 -8.125 C -0.046875 -7.394531 0.15625 -6.550781 0.15625 -5.59375 Z M -1.703125 -5.578125 C -1.703125 -6.390625 -1.960938 -7.003906 -2.484375 -7.421875 C -3.003906 -7.835938 -3.78125 -8.046875 -4.8125 -8.046875 C -5.832031 -8.046875 -6.609375 -7.832031 -7.140625 -7.40625 C -7.671875 -6.976562 -7.9375 -6.375 -7.9375 -5.59375 C -7.9375 -4.800781 -7.671875 -4.191406 -7.140625 -3.765625 C -6.609375 -3.335938 -5.832031 -3.125 -4.8125 -3.125 C -3.78125 -3.125 -3.003906 -3.332031 -2.484375 -3.75 C -1.960938 -4.175781 -1.703125 -4.785156 -1.703125 -5.578125 Z M -1.703125 -5.578125 "/></g></g></g><g fill="#868282" fill-opacity="1"><g transform="translate(23.391531, 312.975823)"><g><path d="M -13.875 -10.390625 L 0 -10.390625 L 0 -8.078125 L -1.53125 -8.078125 C -1 -7.785156 -0.582031 -7.367188 -0.28125 -6.828125 C 0.0078125 -6.285156 0.15625 -5.671875 0.15625 -4.984375 C 0.15625 -4.160156 -0.0507812 -3.425781 -0.46875 -2.78125 C -0.882812 -2.144531 -1.472656 -1.644531 -2.234375 -1.28125 C -2.992188 -0.925781 -3.863281 -0.75 -4.84375 -0.75 C -5.820312 -0.75 -6.679688 -0.925781 -7.421875 -1.28125 C -8.171875 -1.632812 -8.75 -2.128906 -9.15625 -2.765625 C -9.5625 -3.410156 -9.765625 -4.148438 -9.765625 -4.984375 C -9.765625 -5.660156 -9.625 -6.265625 -9.34375 -6.796875 C -9.0625 -7.328125 -8.660156 -7.738281 -8.140625 -8.03125 L -13.875 -8.03125 Z M -1.703125 -5.59375 C -1.703125 -6.375 -1.96875 -6.984375 -2.5 -7.421875 C -3.039062 -7.859375 -3.8125 -8.078125 -4.8125 -8.078125 C -5.800781 -8.078125 -6.566406 -7.863281 -7.109375 -7.4375 C -7.648438 -7.007812 -7.921875 -6.40625 -7.921875 -5.625 C -7.921875 -4.832031 -7.648438 -4.21875 -7.109375 -3.78125 C -6.578125 -3.34375 -5.820312 -3.125 -4.84375 -3.125 C -3.851562 -3.125 -3.082031 -3.34375 -2.53125 -3.78125 C -1.976562 -4.21875 -1.703125 -4.820312 -1.703125 -5.59375 Z M -1.703125 -5.59375 "/></g></g></g><g fill="#868282" fill-opacity="1"><g transform="translate(23.391531, 301.299451)"><g/></g></g><g fill="#868282" fill-opacity="1"><g transform="translate(23.391531, 296.131443)"><g/></g></g><g fill="#868282" fill-opacity="1"><g transform="translate(23.391531, 290.963436)"><g/></g></g><g fill="#868282" fill-opacity="1"><g transform="translate(23.391531, 285.795429)"><g/></g></g><g fill="#868282" fill-opacity="1"><g transform="translate(23.391531, 280.627422)"><g/></g></g><g fill="#868282" fill-opacity="1"><g transform="translate(23.391531, 275.459415)"><g/></g></g><g fill="#868282" fill-opacity="1"><g transform="translate(23.391531, 270.291408)"><g/></g></g><g fill="#868282" fill-opacity="1"><g transform="translate(23.391531, 265.123401)"><g/></g></g><g fill="#868282" fill-opacity="1"><g transform="translate(23.391531, 259.955394)"><g/></g></g><g fill="#868282" fill-opacity="1"><g transform="translate(23.391531, 254.787387)"><g/></g></g><g fill="#868282" fill-opacity="1"><g transform="translate(23.391531, 249.619379)"><g/></g></g><g fill="#868282" fill-opacity="1"><g transform="translate(23.391531, 244.451372)"><g/></g></g><g fill="#868282" fill-opacity="1"><g transform="translate(23.391531, 239.283365)"><g/></g></g><g fill="#868282" fill-opacity="1"><g transform="translate(23.391531, 234.115358)"><g/></g></g><g fill="#868282" fill-opacity="1"><g transform="translate(23.391531, 228.947351)"><g/></g></g><g fill="#868282" fill-opacity="1"><g transform="translate(23.391531, 223.779344)"><g/></g></g><g fill="#868282" fill-opacity="1"><g transform="translate(23.391531, 218.611337)"><g/></g></g><g fill="#868282" fill-opacity="1"><g transform="translate(23.391531, 213.44333)"><g/></g></g><g fill="#868282" fill-opacity="1"><g transform="translate(23.391531, 208.275323)"><g/></g></g><g fill="#868282" fill-opacity="1"><g transform="translate(23.391531, 203.107315)"><g/></g></g><g fill="#868282" fill-opacity="1"><g transform="translate(23.391531, 197.939308)"><g/></g></g><g fill="#868282" fill-opacity="1"><g transform="translate(23.391531, 192.771301)"><g/></g></g><g fill="#868282" fill-opacity="1"><g transform="translate(23.391531, 187.603294)"><g/></g></g><g fill="#868282" fill-opacity="1"><g transform="translate(23.391531, 182.435287)"><g/></g></g><g fill="#868282" fill-opacity="1"><g transform="translate(23.391531, 177.26728)"><g/></g></g><g fill="#868282" fill-opacity="1"><g transform="translate(23.391531, 172.099273)"><g/></g></g><g fill="#868282" fill-opacity="1"><g transform="translate(23.391531, 166.931266)"><g/></g></g><g fill="#868282" fill-opacity="1"><g transform="translate(23.391531, 161.763259)"><g/></g></g><g fill="#868282" fill-opacity="1"><g transform="translate(23.391531, 156.595251)"><g/></g></g><g fill="#868282" fill-opacity="1"><g transform="translate(23.391531, 151.427244)"><g/></g></g><g fill="#868282" fill-opacity="1"><g transform="translate(23.391531, 146.259237)"><g/></g></g><g fill="#868282" fill-opacity="1"><g transform="translate(23.391531, 141.084329)"><g><path d="M -6.9375 -9.71875 C -6.707031 -10.488281 -6.3125 -11.082031 -5.75 -11.5 C -5.1875 -11.925781 -4.488281 -12.140625 -3.65625 -12.140625 C -2.507812 -12.140625 -1.613281 -11.734375 -0.96875 -10.921875 C -0.320312 -10.117188 0 -8.992188 0 -7.546875 L 0 -1.453125 L -13.421875 -1.453125 L -13.421875 -7.359375 C -13.421875 -8.742188 -13.109375 -9.832031 -12.484375 -10.625 C -11.867188 -11.414062 -11.015625 -11.8125 -9.921875 -11.8125 C -9.210938 -11.8125 -8.597656 -11.625 -8.078125 -11.25 C -7.554688 -10.875 -7.175781 -10.363281 -6.9375 -9.71875 Z M -7.765625 -3.828125 L -7.765625 -6.953125 C -7.765625 -8.640625 -8.394531 -9.484375 -9.65625 -9.484375 C -10.28125 -9.484375 -10.75 -9.273438 -11.0625 -8.859375 C -11.382812 -8.441406 -11.546875 -7.804688 -11.546875 -6.953125 L -11.546875 -3.828125 Z M -1.890625 -7.28125 C -1.890625 -8.15625 -2.046875 -8.796875 -2.359375 -9.203125 C -2.671875 -9.617188 -3.164062 -9.828125 -3.84375 -9.828125 C -4.539062 -9.828125 -5.050781 -9.617188 -5.375 -9.203125 C -5.695312 -8.796875 -5.859375 -8.15625 -5.859375 -7.28125 L -5.859375 -3.828125 L -1.890625 -3.828125 Z M -1.890625 -7.28125 "/></g></g></g><g fill="#868282" fill-opacity="1"><g transform="translate(23.391531, 128.069994)"><g><path d="M -9.53125 -10.390625 L 0 -10.390625 L 0 -8.078125 L -1.53125 -8.078125 C -1 -7.785156 -0.582031 -7.367188 -0.28125 -6.828125 C 0.0078125 -6.285156 0.15625 -5.671875 0.15625 -4.984375 C 0.15625 -4.148438 -0.046875 -3.410156 -0.453125 -2.765625 C -0.859375 -2.128906 -1.429688 -1.632812 -2.171875 -1.28125 C -2.910156 -0.925781 -3.769531 -0.75 -4.75 -0.75 C -5.726562 -0.75 -6.597656 -0.925781 -7.359375 -1.28125 C -8.117188 -1.644531 -8.707031 -2.144531 -9.125 -2.78125 C -9.550781 -3.425781 -9.765625 -4.160156 -9.765625 -4.984375 C -9.765625 -5.671875 -9.613281 -6.285156 -9.3125 -6.828125 C -9.019531 -7.367188 -8.613281 -7.785156 -8.09375 -8.078125 L -9.53125 -8.078125 Z M -1.703125 -5.625 C -1.703125 -6.40625 -1.96875 -7.007812 -2.5 -7.4375 C -3.039062 -7.863281 -3.804688 -8.078125 -4.796875 -8.078125 C -5.796875 -8.078125 -6.566406 -7.863281 -7.109375 -7.4375 C -7.648438 -7.007812 -7.921875 -6.394531 -7.921875 -5.59375 C -7.921875 -4.820312 -7.640625 -4.21875 -7.078125 -3.78125 C -6.523438 -3.34375 -5.75 -3.125 -4.75 -3.125 C -3.769531 -3.125 -3.015625 -3.34375 -2.484375 -3.78125 C -1.960938 -4.21875 -1.703125 -4.832031 -1.703125 -5.625 Z M -1.703125 -5.625 "/></g></g></g><g fill="#868282" fill-opacity="1"><g transform="translate(23.391531, 116.39482)"><g><path d="M -13.875 -10.390625 L 0 -10.390625 L 0 -8.078125 L -1.53125 -8.078125 C -1 -7.785156 -0.582031 -7.367188 -0.28125 -6.828125 C 0.0078125 -6.285156 0.15625 -5.671875 0.15625 -4.984375 C 0.15625 -4.160156 -0.0507812 -3.425781 -0.46875 -2.78125 C -0.882812 -2.144531 -1.472656 -1.644531 -2.234375 -1.28125 C -2.992188 -0.925781 -3.863281 -0.75 -4.84375 -0.75 C -5.820312 -0.75 -6.679688 -0.925781 -7.421875 -1.28125 C -8.171875 -1.632812 -8.75 -2.128906 -9.15625 -2.765625 C -9.5625 -3.410156 -9.765625 -4.148438 -9.765625 -4.984375 C -9.765625 -5.660156 -9.625 -6.265625 -9.34375 -6.796875 C -9.0625 -7.328125 -8.660156 -7.738281 -8.140625 -8.03125 L -13.875 -8.03125 Z M -1.703125 -5.59375 C -1.703125 -6.375 -1.96875 -6.984375 -2.5 -7.421875 C -3.039062 -7.859375 -3.8125 -8.078125 -4.8125 -8.078125 C -5.800781 -8.078125 -6.566406 -7.863281 -7.109375 -7.4375 C -7.648438 -7.007812 -7.921875 -6.40625 -7.921875 -5.625 C -7.921875 -4.832031 -7.648438 -4.21875 -7.109375 -3.78125 C -6.578125 -3.34375 -5.820312 -3.125 -4.84375 -3.125 C -3.851562 -3.125 -3.082031 -3.34375 -2.53125 -3.78125 C -1.976562 -4.21875 -1.703125 -4.820312 -1.703125 -5.59375 Z M -1.703125 -5.59375 "/></g></g></g><g fill="#868282" fill-opacity="1"><g transform="translate(48.124203, 458.922014)"><g><path d="M 1.453125 -13.421875 L 7.28125 -13.421875 C 8.726562 -13.421875 9.851562 -13.070312 10.65625 -12.375 C 11.457031 -11.675781 11.859375 -10.726562 11.859375 -9.53125 C 11.859375 -8.320312 11.453125 -7.363281 10.640625 -6.65625 C 9.835938 -5.945312 8.71875 -5.59375 7.28125 -5.59375 L 3.890625 -5.59375 L 3.890625 0 L 1.453125 0 Z M 7 -7.484375 C 7.84375 -7.484375 8.476562 -7.65625 8.90625 -8 C 9.34375 -8.351562 9.5625 -8.851562 9.5625 -9.5 C 9.5625 -10.164062 9.347656 -10.671875 8.921875 -11.015625 C 8.492188 -11.367188 7.851562 -11.546875 7 -11.546875 L 3.890625 -11.546875 L 3.890625 -7.484375 Z M 7 -7.484375 "/></g></g></g><g fill="#868282" fill-opacity="1"><g transform="translate(60.685852, 458.922014)"><g><path d="M 6.40625 -9.75 C 6.769531 -9.75 7.085938 -9.695312 7.359375 -9.59375 L 7.34375 -7.453125 C 6.9375 -7.609375 6.519531 -7.6875 6.09375 -7.6875 C 5.289062 -7.6875 4.675781 -7.453125 4.25 -6.984375 C 3.832031 -6.523438 3.625 -5.914062 3.625 -5.15625 L 3.625 0 L 1.28125 0 L 1.28125 -6.828125 C 1.28125 -7.828125 1.226562 -8.726562 1.125 -9.53125 L 3.34375 -9.53125 L 3.53125 -7.84375 C 3.769531 -8.457031 4.144531 -8.925781 4.65625 -9.25 C 5.175781 -9.582031 5.757812 -9.75 6.40625 -9.75 Z M 6.40625 -9.75 "/></g></g></g><g fill="#868282" fill-opacity="1"><g transform="translate(68.079493, 458.922014)"><g><path d="M 9.625 -4.640625 L 3.0625 -4.640625 C 3.101562 -3.617188 3.351562 -2.863281 3.8125 -2.375 C 4.269531 -1.894531 4.953125 -1.65625 5.859375 -1.65625 C 6.910156 -1.65625 7.878906 -1.992188 8.765625 -2.671875 L 9.453125 -1.0625 C 8.992188 -0.695312 8.4375 -0.398438 7.78125 -0.171875 C 7.125 0.046875 6.453125 0.15625 5.765625 0.15625 C 4.210938 0.15625 2.988281 -0.28125 2.09375 -1.15625 C 1.195312 -2.039062 0.75 -3.253906 0.75 -4.796875 C 0.75 -5.765625 0.941406 -6.625 1.328125 -7.375 C 1.722656 -8.125 2.269531 -8.707031 2.96875 -9.125 C 3.675781 -9.550781 4.476562 -9.765625 5.375 -9.765625 C 6.6875 -9.765625 7.722656 -9.335938 8.484375 -8.484375 C 9.242188 -7.640625 9.625 -6.476562 9.625 -5 Z M 5.4375 -8.078125 C 4.800781 -8.078125 4.285156 -7.890625 3.890625 -7.515625 C 3.492188 -7.140625 3.238281 -6.601562 3.125 -5.90625 L 7.5625 -5.90625 C 7.488281 -6.625 7.269531 -7.164062 6.90625 -7.53125 C 6.550781 -7.894531 6.0625 -8.078125 5.4375 -8.078125 Z M 5.4375 -8.078125 "/></g></g></g><g fill="#868282" fill-opacity="1"><g transform="translate(78.415507, 458.922014)"><g><path d="M 1.296875 -4.15625 L 1.296875 -6.03125 L 6.984375 -6.03125 L 6.984375 -4.15625 Z M 1.296875 -4.15625 "/></g></g></g><g fill="#868282" fill-opacity="1"><g transform="translate(86.676772, 458.922014)"><g><path d="M 4.28125 -7.75 L 4.28125 -3.484375 C 4.28125 -2.367188 4.800781 -1.8125 5.84375 -1.8125 C 6.132812 -1.8125 6.453125 -1.863281 6.796875 -1.96875 L 6.796875 -0.09375 C 6.378906 0.0507812 5.875 0.125 5.28125 0.125 C 4.195312 0.125 3.363281 -0.171875 2.78125 -0.765625 C 2.207031 -1.367188 1.921875 -2.238281 1.921875 -3.375 L 1.921875 -7.75 L 0.09375 -7.75 L 0.09375 -9.53125 L 1.921875 -9.53125 L 1.921875 -11.84375 L 4.28125 -12.640625 L 4.28125 -9.53125 L 6.8125 -9.53125 L 6.8125 -7.75 Z M 4.28125 -7.75 "/></g></g></g><g fill="#868282" fill-opacity="1"><g transform="translate(93.825228, 458.922014)"><g><path d="M 6.40625 -9.75 C 6.769531 -9.75 7.085938 -9.695312 7.359375 -9.59375 L 7.34375 -7.453125 C 6.9375 -7.609375 6.519531 -7.6875 6.09375 -7.6875 C 5.289062 -7.6875 4.675781 -7.453125 4.25 -6.984375 C 3.832031 -6.523438 3.625 -5.914062 3.625 -5.15625 L 3.625 0 L 1.28125 0 L 1.28125 -6.828125 C 1.28125 -7.828125 1.226562 -8.726562 1.125 -9.53125 L 3.34375 -9.53125 L 3.53125 -7.84375 C 3.769531 -8.457031 4.144531 -8.925781 4.65625 -9.25 C 5.175781 -9.582031 5.757812 -9.75 6.40625 -9.75 Z M 6.40625 -9.75 "/></g></g></g><g fill="#868282" fill-opacity="1"><g transform="translate(101.218869, 458.922014)"><g><path d="M 9.625 -4.640625 L 3.0625 -4.640625 C 3.101562 -3.617188 3.351562 -2.863281 3.8125 -2.375 C 4.269531 -1.894531 4.953125 -1.65625 5.859375 -1.65625 C 6.910156 -1.65625 7.878906 -1.992188 8.765625 -2.671875 L 9.453125 -1.0625 C 8.992188 -0.695312 8.4375 -0.398438 7.78125 -0.171875 C 7.125 0.046875 6.453125 0.15625 5.765625 0.15625 C 4.210938 0.15625 2.988281 -0.28125 2.09375 -1.15625 C 1.195312 -2.039062 0.75 -3.253906 0.75 -4.796875 C 0.75 -5.765625 0.941406 -6.625 1.328125 -7.375 C 1.722656 -8.125 2.269531 -8.707031 2.96875 -9.125 C 3.675781 -9.550781 4.476562 -9.765625 5.375 -9.765625 C 6.6875 -9.765625 7.722656 -9.335938 8.484375 -8.484375 C 9.242188 -7.640625 9.625 -6.476562 9.625 -5 Z M 5.4375 -8.078125 C 4.800781 -8.078125 4.285156 -7.890625 3.890625 -7.515625 C 3.492188 -7.140625 3.238281 -6.601562 3.125 -5.90625 L 7.5625 -5.90625 C 7.488281 -6.625 7.269531 -7.164062 6.90625 -7.53125 C 6.550781 -7.894531 6.0625 -8.078125 5.4375 -8.078125 Z M 5.4375 -8.078125 "/></g></g></g><g fill="#868282" fill-opacity="1"><g transform="translate(111.554883, 458.922014)"><g><path d="M 10.390625 -9.53125 L 10.390625 0 L 8.078125 0 L 8.078125 -1.53125 C 7.785156 -1 7.367188 -0.582031 6.828125 -0.28125 C 6.285156 0.0078125 5.671875 0.15625 4.984375 0.15625 C 4.148438 0.15625 3.410156 -0.046875 2.765625 -0.453125 C 2.128906 -0.859375 1.632812 -1.429688 1.28125 -2.171875 C 0.925781 -2.910156 0.75 -3.769531 0.75 -4.75 C 0.75 -5.726562 0.925781 -6.597656 1.28125 -7.359375 C 1.644531 -8.117188 2.144531 -8.707031 2.78125 -9.125 C 3.425781 -9.550781 4.160156 -9.765625 4.984375 -9.765625 C 5.671875 -9.765625 6.285156 -9.613281 6.828125 -9.3125 C 7.367188 -9.019531 7.785156 -8.613281 8.078125 -8.09375 L 8.078125 -9.53125 Z M 5.625 -1.703125 C 6.40625 -1.703125 7.007812 -1.96875 7.4375 -2.5 C 7.863281 -3.039062 8.078125 -3.804688 8.078125 -4.796875 C 8.078125 -5.796875 7.863281 -6.566406 7.4375 -7.109375 C 7.007812 -7.648438 6.394531 -7.921875 5.59375 -7.921875 C 4.820312 -7.921875 4.21875 -7.640625 3.78125 -7.078125 C 3.34375 -6.523438 3.125 -5.75 3.125 -4.75 C 3.125 -3.769531 3.34375 -3.015625 3.78125 -2.484375 C 4.21875 -1.960938 4.832031 -1.703125 5.625 -1.703125 Z M 5.625 -1.703125 "/></g></g></g><g fill="#868282" fill-opacity="1"><g transform="translate(123.230058, 458.922014)"><g><path d="M 4.28125 -7.75 L 4.28125 -3.484375 C 4.28125 -2.367188 4.800781 -1.8125 5.84375 -1.8125 C 6.132812 -1.8125 6.453125 -1.863281 6.796875 -1.96875 L 6.796875 -0.09375 C 6.378906 0.0507812 5.875 0.125 5.28125 0.125 C 4.195312 0.125 3.363281 -0.171875 2.78125 -0.765625 C 2.207031 -1.367188 1.921875 -2.238281 1.921875 -3.375 L 1.921875 -7.75 L 0.09375 -7.75 L 0.09375 -9.53125 L 1.921875 -9.53125 L 1.921875 -11.84375 L 4.28125 -12.640625 L 4.28125 -9.53125 L 6.8125 -9.53125 L 6.8125 -7.75 Z M 4.28125 -7.75 "/></g></g></g><g fill="#868282" fill-opacity="1"><g transform="translate(130.378513, 458.922014)"><g><path d="M 12.515625 -9.765625 C 13.597656 -9.765625 14.40625 -9.441406 14.9375 -8.796875 C 15.46875 -8.148438 15.734375 -7.164062 15.734375 -5.84375 L 15.734375 0 L 13.375 0 L 13.375 -5.765625 C 13.375 -6.523438 13.25 -7.070312 13 -7.40625 C 12.757812 -7.738281 12.351562 -7.90625 11.78125 -7.90625 C 11.132812 -7.90625 10.625 -7.675781 10.25 -7.21875 C 9.875 -6.757812 9.6875 -6.125 9.6875 -5.3125 L 9.6875 0 L 7.34375 0 L 7.34375 -5.765625 C 7.34375 -6.515625 7.210938 -7.054688 6.953125 -7.390625 C 6.691406 -7.734375 6.285156 -7.90625 5.734375 -7.90625 C 5.078125 -7.90625 4.5625 -7.675781 4.1875 -7.21875 C 3.8125 -6.757812 3.625 -6.125 3.625 -5.3125 L 3.625 0 L 1.28125 0 L 1.28125 -6.828125 C 1.28125 -7.828125 1.226562 -8.726562 1.125 -9.53125 L 3.34375 -9.53125 L 3.515625 -8.015625 C 3.785156 -8.578125 4.179688 -9.007812 4.703125 -9.3125 C 5.222656 -9.613281 5.820312 -9.765625 6.5 -9.765625 C 7.957031 -9.765625 8.910156 -9.160156 9.359375 -7.953125 C 9.660156 -8.523438 10.085938 -8.96875 10.640625 -9.28125 C 11.203125 -9.601562 11.828125 -9.765625 12.515625 -9.765625 Z M 12.515625 -9.765625 "/></g></g></g><g fill="#868282" fill-opacity="1"><g transform="translate(147.334862, 458.922014)"><g><path d="M 9.625 -4.640625 L 3.0625 -4.640625 C 3.101562 -3.617188 3.351562 -2.863281 3.8125 -2.375 C 4.269531 -1.894531 4.953125 -1.65625 5.859375 -1.65625 C 6.910156 -1.65625 7.878906 -1.992188 8.765625 -2.671875 L 9.453125 -1.0625 C 8.992188 -0.695312 8.4375 -0.398438 7.78125 -0.171875 C 7.125 0.046875 6.453125 0.15625 5.765625 0.15625 C 4.210938 0.15625 2.988281 -0.28125 2.09375 -1.15625 C 1.195312 -2.039062 0.75 -3.253906 0.75 -4.796875 C 0.75 -5.765625 0.941406 -6.625 1.328125 -7.375 C 1.722656 -8.125 2.269531 -8.707031 2.96875 -9.125 C 3.675781 -9.550781 4.476562 -9.765625 5.375 -9.765625 C 6.6875 -9.765625 7.722656 -9.335938 8.484375 -8.484375 C 9.242188 -7.640625 9.625 -6.476562 9.625 -5 Z M 5.4375 -8.078125 C 4.800781 -8.078125 4.285156 -7.890625 3.890625 -7.515625 C 3.492188 -7.140625 3.238281 -6.601562 3.125 -5.90625 L 7.5625 -5.90625 C 7.488281 -6.625 7.269531 -7.164062 6.90625 -7.53125 C 6.550781 -7.894531 6.0625 -8.078125 5.4375 -8.078125 Z M 5.4375 -8.078125 "/></g></g></g><g fill="#868282" fill-opacity="1"><g transform="translate(157.670876, 458.922014)"><g><path d="M 6.734375 -9.765625 C 9.003906 -9.765625 10.140625 -8.457031 10.140625 -5.84375 L 10.140625 0 L 7.78125 0 L 7.78125 -5.734375 C 7.78125 -6.484375 7.632812 -7.03125 7.34375 -7.375 C 7.0625 -7.726562 6.617188 -7.90625 6.015625 -7.90625 C 5.296875 -7.90625 4.71875 -7.675781 4.28125 -7.21875 C 3.84375 -6.757812 3.625 -6.148438 3.625 -5.390625 L 3.625 0 L 1.28125 0 L 1.28125 -6.828125 C 1.28125 -7.828125 1.226562 -8.726562 1.125 -9.53125 L 3.34375 -9.53125 L 3.515625 -7.953125 C 3.835938 -8.535156 4.273438 -8.984375 4.828125 -9.296875 C 5.390625 -9.609375 6.023438 -9.765625 6.734375 -9.765625 Z M 6.734375 -9.765625 "/></g></g></g><g fill="#868282" fill-opacity="1"><g transform="translate(169.044265, 458.922014)"><g><path d="M 4.28125 -7.75 L 4.28125 -3.484375 C 4.28125 -2.367188 4.800781 -1.8125 5.84375 -1.8125 C 6.132812 -1.8125 6.453125 -1.863281 6.796875 -1.96875 L 6.796875 -0.09375 C 6.378906 0.0507812 5.875 0.125 5.28125 0.125 C 4.195312 0.125 3.363281 -0.171875 2.78125 -0.765625 C 2.207031 -1.367188 1.921875 -2.238281 1.921875 -3.375 L 1.921875 -7.75 L 0.09375 -7.75 L 0.09375 -9.53125 L 1.921875 -9.53125 L 1.921875 -11.84375 L 4.28125 -12.640625 L 4.28125 -9.53125 L 6.8125 -9.53125 L 6.8125 -7.75 Z M 4.28125 -7.75 "/></g></g></g><g fill="#868282" fill-opacity="1"><g transform="translate(176.194878, 458.922014)"><g/></g></g><g fill="#868282" fill-opacity="1"><g transform="translate(181.362885, 458.922014)"><g/></g></g><g fill="#868282" fill-opacity="1"><g transform="translate(186.530892, 458.922014)"><g/></g></g><g fill="#868282" fill-opacity="1"><g transform="translate(191.698899, 458.922014)"><g/></g></g><g fill="#868282" fill-opacity="1"><g transform="translate(196.866906, 458.922014)"><g/></g></g><g fill="#868282" fill-opacity="1"><g transform="translate(202.034913, 458.922014)"><g/></g></g><g fill="#868282" fill-opacity="1"><g transform="translate(207.20292, 458.922014)"><g/></g></g><g fill="#868282" fill-opacity="1"><g transform="translate(212.370928, 458.922014)"><g/></g></g><g fill="#868282" fill-opacity="1"><g transform="translate(217.538935, 458.922014)"><g/></g></g><g fill="#868282" fill-opacity="1"><g transform="translate(222.706942, 458.922014)"><g/></g></g><g fill="#868282" fill-opacity="1"><g transform="translate(227.874949, 458.922014)"><g/></g></g><g fill="#868282" fill-opacity="1"><g transform="translate(233.042956, 458.922014)"><g/></g></g><g fill="#868282" fill-opacity="1"><g transform="translate(238.210963, 458.922014)"><g/></g></g><g fill="#868282" fill-opacity="1"><g transform="translate(243.37897, 458.922014)"><g/></g></g><g fill="#868282" fill-opacity="1"><g transform="translate(248.546977, 458.922014)"><g/></g></g><g fill="#868282" fill-opacity="1"><g transform="translate(253.714984, 458.922014)"><g/></g></g><g fill="#868282" fill-opacity="1"><g transform="translate(258.882992, 458.922014)"><g/></g></g><g fill="#868282" fill-opacity="1"><g transform="translate(264.050999, 458.922014)"><g/></g></g><g fill="#868282" fill-opacity="1"><g transform="translate(269.219006, 458.922014)"><g/></g></g><g fill="#868282" fill-opacity="1"><g transform="translate(274.387013, 458.922014)"><g/></g></g><g fill="#868282" fill-opacity="1"><g transform="translate(279.55502, 458.922014)"><g/></g></g><g fill="#868282" fill-opacity="1"><g transform="translate(284.723027, 458.922014)"><g/></g></g><g fill="#868282" fill-opacity="1"><g transform="translate(289.891034, 458.922014)"><g/></g></g><g fill="#868282" fill-opacity="1"><g transform="translate(295.059041, 458.922014)"><g/></g></g><g fill="#868282" fill-opacity="1"><g transform="translate(300.227048, 458.922014)"><g/></g></g><g fill="#868282" fill-opacity="1"><g transform="translate(305.395056, 458.922014)"><g/></g></g><g fill="#868282" fill-opacity="1"><g transform="translate(310.563063, 458.922014)"><g/></g></g><g fill="#868282" fill-opacity="1"><g transform="translate(315.73107, 458.922014)"><g/></g></g><g fill="#868282" fill-opacity="1"><g transform="translate(320.899077, 458.922014)"><g/></g></g><g fill="#868282" fill-opacity="1"><g transform="translate(326.067084, 458.922014)"><g/></g></g><g fill="#868282" fill-opacity="1"><g transform="translate(331.235091, 458.922014)"><g/></g></g><g fill="#868282" fill-opacity="1"><g transform="translate(336.403098, 458.922014)"><g/></g></g><g fill="#868282" fill-opacity="1"><g transform="translate(341.571105, 458.922014)"><g/></g></g><g fill="#868282" fill-opacity="1"><g transform="translate(346.739112, 458.922014)"><g/></g></g><g fill="#868282" fill-opacity="1"><g transform="translate(351.907119, 458.922014)"><g/></g></g><g fill="#868282" fill-opacity="1"><g transform="translate(357.075127, 458.922014)"><g/></g></g><g fill="#868282" fill-opacity="1"><g transform="translate(362.243134, 458.922014)"><g/></g></g><g fill="#868282" fill-opacity="1"><g transform="translate(367.411141, 458.922014)"><g/></g></g><g fill="#868282" fill-opacity="1"><g transform="translate(372.579148, 458.922014)"><g/></g></g><g fill="#868282" fill-opacity="1"><g transform="translate(377.747155, 458.922014)"><g/></g></g><g fill="#868282" fill-opacity="1"><g transform="translate(382.915162, 458.922014)"><g/></g></g><g fill="#868282" fill-opacity="1"><g transform="translate(388.083169, 458.922014)"><g/></g></g><g fill="#868282" fill-opacity="1"><g transform="translate(393.251176, 458.922014)"><g/></g></g><g fill="#868282" fill-opacity="1"><g transform="translate(398.419183, 458.922014)"><g/></g></g><g fill="#868282" fill-opacity="1"><g transform="translate(403.587191, 458.922014)"><g/></g></g><g fill="#868282" fill-opacity="1"><g transform="translate(408.755198, 458.922014)"><g/></g></g><g fill="#868282" fill-opacity="1"><g transform="translate(413.923205, 458.922014)"><g/></g></g><g fill="#868282" fill-opacity="1"><g transform="translate(419.091212, 458.922014)"><g/></g></g><g fill="#868282" fill-opacity="1"><g transform="translate(424.259219, 458.922014)"><g/></g></g><g fill="#868282" fill-opacity="1"><g transform="translate(429.427226, 458.922014)"><g/></g></g><g fill="#868282" fill-opacity="1"><g transform="translate(434.595233, 458.922014)"><g/></g></g><g fill="#868282" fill-opacity="1"><g transform="translate(439.76324, 458.922014)"><g/></g></g><g fill="#868282" fill-opacity="1"><g transform="translate(444.931247, 458.922014)"><g/></g></g><g fill="#868282" fill-opacity="1"><g transform="translate(450.099255, 458.922014)"><g/></g></g><g fill="#868282" fill-opacity="1"><g transform="translate(455.267262, 458.922014)"><g/></g></g><g fill="#868282" fill-opacity="1"><g transform="translate(460.435269, 458.922014)"><g/></g></g><g fill="#868282" fill-opacity="1"><g transform="translate(465.603276, 458.922014)"><g/></g></g><g fill="#868282" fill-opacity="1"><g transform="translate(470.771283, 458.922014)"><g/></g></g><g fill="#868282" fill-opacity="1"><g transform="translate(475.93929, 458.922014)"><g/></g></g><g fill="#868282" fill-opacity="1"><g transform="translate(481.107297, 458.922014)"><g/></g></g><g fill="#868282" fill-opacity="1"><g transform="translate(486.275304, 458.922014)"><g/></g></g><g fill="#868282" fill-opacity="1"><g transform="translate(491.443311, 458.922014)"><g/></g></g><g fill="#868282" fill-opacity="1"><g transform="translate(496.625121, 458.922014)"><g><path d="M 1.453125 -13.421875 L 7.28125 -13.421875 C 8.726562 -13.421875 9.851562 -13.070312 10.65625 -12.375 C 11.457031 -11.675781 11.859375 -10.726562 11.859375 -9.53125 C 11.859375 -8.320312 11.453125 -7.363281 10.640625 -6.65625 C 9.835938 -5.945312 8.71875 -5.59375 7.28125 -5.59375 L 3.890625 -5.59375 L 3.890625 0 L 1.453125 0 Z M 7 -7.484375 C 7.84375 -7.484375 8.476562 -7.65625 8.90625 -8 C 9.34375 -8.351562 9.5625 -8.851562 9.5625 -9.5 C 9.5625 -10.164062 9.347656 -10.671875 8.921875 -11.015625 C 8.492188 -11.367188 7.851562 -11.546875 7 -11.546875 L 3.890625 -11.546875 L 3.890625 -7.484375 Z M 7 -7.484375 "/></g></g></g><g fill="#868282" fill-opacity="1"><g transform="translate(509.186769, 458.922014)"><g><path d="M 5.59375 0.15625 C 4.632812 0.15625 3.785156 -0.046875 3.046875 -0.453125 C 2.304688 -0.859375 1.738281 -1.429688 1.34375 -2.171875 C 0.945312 -2.921875 0.75 -3.800781 0.75 -4.8125 C 0.75 -5.8125 0.945312 -6.6875 1.34375 -7.4375 C 1.738281 -8.1875 2.304688 -8.757812 3.046875 -9.15625 C 3.785156 -9.5625 4.632812 -9.765625 5.59375 -9.765625 C 6.550781 -9.765625 7.394531 -9.5625 8.125 -9.15625 C 8.851562 -8.757812 9.414062 -8.1875 9.8125 -7.4375 C 10.207031 -6.6875 10.40625 -5.8125 10.40625 -4.8125 C 10.40625 -3.800781 10.207031 -2.921875 9.8125 -2.171875 C 9.414062 -1.429688 8.851562 -0.859375 8.125 -0.453125 C 7.394531 -0.046875 6.550781 0.15625 5.59375 0.15625 Z M 5.578125 -1.703125 C 6.390625 -1.703125 7.003906 -1.960938 7.421875 -2.484375 C 7.835938 -3.003906 8.046875 -3.78125 8.046875 -4.8125 C 8.046875 -5.832031 7.832031 -6.609375 7.40625 -7.140625 C 6.976562 -7.671875 6.375 -7.9375 5.59375 -7.9375 C 4.800781 -7.9375 4.191406 -7.671875 3.765625 -7.140625 C 3.335938 -6.609375 3.125 -5.832031 3.125 -4.8125 C 3.125 -3.78125 3.332031 -3.003906 3.75 -2.484375 C 4.175781 -1.960938 4.785156 -1.703125 5.578125 -1.703125 Z M 5.578125 -1.703125 "/></g></g></g><g fill="#868282" fill-opacity="1"><g transform="translate(520.35269, 458.922014)"><g><path d="M 4.765625 0.15625 C 3.046875 0.15625 1.675781 -0.25 0.65625 -1.0625 L 1.3125 -2.71875 C 2.332031 -1.957031 3.5 -1.578125 4.8125 -1.578125 C 5.375 -1.578125 5.804688 -1.671875 6.109375 -1.859375 C 6.421875 -2.054688 6.578125 -2.320312 6.578125 -2.65625 C 6.578125 -2.945312 6.46875 -3.175781 6.25 -3.34375 C 6.039062 -3.519531 5.679688 -3.671875 5.171875 -3.796875 L 3.578125 -4.15625 C 1.847656 -4.53125 0.984375 -5.414062 0.984375 -6.8125 C 0.984375 -7.382812 1.144531 -7.894531 1.46875 -8.34375 C 1.800781 -8.789062 2.257812 -9.140625 2.84375 -9.390625 C 3.4375 -9.640625 4.125 -9.765625 4.90625 -9.765625 C 5.582031 -9.765625 6.234375 -9.660156 6.859375 -9.453125 C 7.492188 -9.242188 8.050781 -8.945312 8.53125 -8.5625 L 7.828125 -6.953125 C 6.867188 -7.660156 5.890625 -8.015625 4.890625 -8.015625 C 4.347656 -8.015625 3.925781 -7.910156 3.625 -7.703125 C 3.320312 -7.503906 3.171875 -7.234375 3.171875 -6.890625 C 3.171875 -6.609375 3.257812 -6.382812 3.4375 -6.21875 C 3.625 -6.0625 3.9375 -5.925781 4.375 -5.8125 L 6 -5.453125 C 6.9375 -5.234375 7.625 -4.898438 8.0625 -4.453125 C 8.5 -4.015625 8.71875 -3.4375 8.71875 -2.71875 C 8.71875 -1.832031 8.363281 -1.128906 7.65625 -0.609375 C 6.945312 -0.0976562 5.984375 0.15625 4.765625 0.15625 Z M 4.765625 0.15625 "/></g></g></g><g fill="#868282" fill-opacity="1"><g transform="translate(529.80223, 458.922014)"><g><path d="M 4.28125 -7.75 L 4.28125 -3.484375 C 4.28125 -2.367188 4.800781 -1.8125 5.84375 -1.8125 C 6.132812 -1.8125 6.453125 -1.863281 6.796875 -1.96875 L 6.796875 -0.09375 C 6.378906 0.0507812 5.875 0.125 5.28125 0.125 C 4.195312 0.125 3.363281 -0.171875 2.78125 -0.765625 C 2.207031 -1.367188 1.921875 -2.238281 1.921875 -3.375 L 1.921875 -7.75 L 0.09375 -7.75 L 0.09375 -9.53125 L 1.921875 -9.53125 L 1.921875 -11.84375 L 4.28125 -12.640625 L 4.28125 -9.53125 L 6.8125 -9.53125 L 6.8125 -7.75 Z M 4.28125 -7.75 "/></g></g></g><g fill="#868282" fill-opacity="1"><g transform="translate(536.950685, 458.922014)"><g><path d="M 1.296875 -4.15625 L 1.296875 -6.03125 L 6.984375 -6.03125 L 6.984375 -4.15625 Z M 1.296875 -4.15625 "/></g></g></g><g fill="#868282" fill-opacity="1"><g transform="translate(545.21195, 458.922014)"><g><path d="M 4.28125 -7.75 L 4.28125 -3.484375 C 4.28125 -2.367188 4.800781 -1.8125 5.84375 -1.8125 C 6.132812 -1.8125 6.453125 -1.863281 6.796875 -1.96875 L 6.796875 -0.09375 C 6.378906 0.0507812 5.875 0.125 5.28125 0.125 C 4.195312 0.125 3.363281 -0.171875 2.78125 -0.765625 C 2.207031 -1.367188 1.921875 -2.238281 1.921875 -3.375 L 1.921875 -7.75 L 0.09375 -7.75 L 0.09375 -9.53125 L 1.921875 -9.53125 L 1.921875 -11.84375 L 4.28125 -12.640625 L 4.28125 -9.53125 L 6.8125 -9.53125 L 6.8125 -7.75 Z M 4.28125 -7.75 "/></g></g></g><g fill="#868282" fill-opacity="1"><g transform="translate(552.360406, 458.922014)"><g><path d="M 6.40625 -9.75 C 6.769531 -9.75 7.085938 -9.695312 7.359375 -9.59375 L 7.34375 -7.453125 C 6.9375 -7.609375 6.519531 -7.6875 6.09375 -7.6875 C 5.289062 -7.6875 4.675781 -7.453125 4.25 -6.984375 C 3.832031 -6.523438 3.625 -5.914062 3.625 -5.15625 L 3.625 0 L 1.28125 0 L 1.28125 -6.828125 C 1.28125 -7.828125 1.226562 -8.726562 1.125 -9.53125 L 3.34375 -9.53125 L 3.53125 -7.84375 C 3.769531 -8.457031 4.144531 -8.925781 4.65625 -9.25 C 5.175781 -9.582031 5.757812 -9.75 6.40625 -9.75 Z M 6.40625 -9.75 "/></g></g></g><g fill="#868282" fill-opacity="1"><g transform="translate(559.754047, 458.922014)"><g><path d="M 9.625 -4.640625 L 3.0625 -4.640625 C 3.101562 -3.617188 3.351562 -2.863281 3.8125 -2.375 C 4.269531 -1.894531 4.953125 -1.65625 5.859375 -1.65625 C 6.910156 -1.65625 7.878906 -1.992188 8.765625 -2.671875 L 9.453125 -1.0625 C 8.992188 -0.695312 8.4375 -0.398438 7.78125 -0.171875 C 7.125 0.046875 6.453125 0.15625 5.765625 0.15625 C 4.210938 0.15625 2.988281 -0.28125 2.09375 -1.15625 C 1.195312 -2.039062 0.75 -3.253906 0.75 -4.796875 C 0.75 -5.765625 0.941406 -6.625 1.328125 -7.375 C 1.722656 -8.125 2.269531 -8.707031 2.96875 -9.125 C 3.675781 -9.550781 4.476562 -9.765625 5.375 -9.765625 C 6.6875 -9.765625 7.722656 -9.335938 8.484375 -8.484375 C 9.242188 -7.640625 9.625 -6.476562 9.625 -5 Z M 5.4375 -8.078125 C 4.800781 -8.078125 4.285156 -7.890625 3.890625 -7.515625 C 3.492188 -7.140625 3.238281 -6.601562 3.125 -5.90625 L 7.5625 -5.90625 C 7.488281 -6.625 7.269531 -7.164062 6.90625 -7.53125 C 6.550781 -7.894531 6.0625 -8.078125 5.4375 -8.078125 Z M 5.4375 -8.078125 "/></g></g></g><g fill="#868282" fill-opacity="1"><g transform="translate(570.090061, 458.922014)"><g><path d="M 10.390625 -9.53125 L 10.390625 0 L 8.078125 0 L 8.078125 -1.53125 C 7.785156 -1 7.367188 -0.582031 6.828125 -0.28125 C 6.285156 0.0078125 5.671875 0.15625 4.984375 0.15625 C 4.148438 0.15625 3.410156 -0.046875 2.765625 -0.453125 C 2.128906 -0.859375 1.632812 -1.429688 1.28125 -2.171875 C 0.925781 -2.910156 0.75 -3.769531 0.75 -4.75 C 0.75 -5.726562 0.925781 -6.597656 1.28125 -7.359375 C 1.644531 -8.117188 2.144531 -8.707031 2.78125 -9.125 C 3.425781 -9.550781 4.160156 -9.765625 4.984375 -9.765625 C 5.671875 -9.765625 6.285156 -9.613281 6.828125 -9.3125 C 7.367188 -9.019531 7.785156 -8.613281 8.078125 -8.09375 L 8.078125 -9.53125 Z M 5.625 -1.703125 C 6.40625 -1.703125 7.007812 -1.96875 7.4375 -2.5 C 7.863281 -3.039062 8.078125 -3.804688 8.078125 -4.796875 C 8.078125 -5.796875 7.863281 -6.566406 7.4375 -7.109375 C 7.007812 -7.648438 6.394531 -7.921875 5.59375 -7.921875 C 4.820312 -7.921875 4.21875 -7.640625 3.78125 -7.078125 C 3.34375 -6.523438 3.125 -5.75 3.125 -4.75 C 3.125 -3.769531 3.34375 -3.015625 3.78125 -2.484375 C 4.21875 -1.960938 4.832031 -1.703125 5.625 -1.703125 Z M 5.625 -1.703125 "/></g></g></g><g fill="#868282" fill-opacity="1"><g transform="translate(581.765236, 458.922014)"><g><path d="M 4.28125 -7.75 L 4.28125 -3.484375 C 4.28125 -2.367188 4.800781 -1.8125 5.84375 -1.8125 C 6.132812 -1.8125 6.453125 -1.863281 6.796875 -1.96875 L 6.796875 -0.09375 C 6.378906 0.0507812 5.875 0.125 5.28125 0.125 C 4.195312 0.125 3.363281 -0.171875 2.78125 -0.765625 C 2.207031 -1.367188 1.921875 -2.238281 1.921875 -3.375 L 1.921875 -7.75 L 0.09375 -7.75 L 0.09375 -9.53125 L 1.921875 -9.53125 L 1.921875 -11.84375 L 4.28125 -12.640625 L 4.28125 -9.53125 L 6.8125 -9.53125 L 6.8125 -7.75 Z M 4.28125 -7.75 "/></g></g></g><g fill="#868282" fill-opacity="1"><g transform="translate(588.913691, 458.922014)"><g><path d="M 12.515625 -9.765625 C 13.597656 -9.765625 14.40625 -9.441406 14.9375 -8.796875 C 15.46875 -8.148438 15.734375 -7.164062 15.734375 -5.84375 L 15.734375 0 L 13.375 0 L 13.375 -5.765625 C 13.375 -6.523438 13.25 -7.070312 13 -7.40625 C 12.757812 -7.738281 12.351562 -7.90625 11.78125 -7.90625 C 11.132812 -7.90625 10.625 -7.675781 10.25 -7.21875 C 9.875 -6.757812 9.6875 -6.125 9.6875 -5.3125 L 9.6875 0 L 7.34375 0 L 7.34375 -5.765625 C 7.34375 -6.515625 7.210938 -7.054688 6.953125 -7.390625 C 6.691406 -7.734375 6.285156 -7.90625 5.734375 -7.90625 C 5.078125 -7.90625 4.5625 -7.675781 4.1875 -7.21875 C 3.8125 -6.757812 3.625 -6.125 3.625 -5.3125 L 3.625 0 L 1.28125 0 L 1.28125 -6.828125 C 1.28125 -7.828125 1.226562 -8.726562 1.125 -9.53125 L 3.34375 -9.53125 L 3.515625 -8.015625 C 3.785156 -8.578125 4.179688 -9.007812 4.703125 -9.3125 C 5.222656 -9.613281 5.820312 -9.765625 6.5 -9.765625 C 7.957031 -9.765625 8.910156 -9.160156 9.359375 -7.953125 C 9.660156 -8.523438 10.085938 -8.96875 10.640625 -9.28125 C 11.203125 -9.601562 11.828125 -9.765625 12.515625 -9.765625 Z M 12.515625 -9.765625 "/></g></g></g><g fill="#868282" fill-opacity="1"><g transform="translate(605.87004, 458.922014)"><g><path d="M 9.625 -4.640625 L 3.0625 -4.640625 C 3.101562 -3.617188 3.351562 -2.863281 3.8125 -2.375 C 4.269531 -1.894531 4.953125 -1.65625 5.859375 -1.65625 C 6.910156 -1.65625 7.878906 -1.992188 8.765625 -2.671875 L 9.453125 -1.0625 C 8.992188 -0.695312 8.4375 -0.398438 7.78125 -0.171875 C 7.125 0.046875 6.453125 0.15625 5.765625 0.15625 C 4.210938 0.15625 2.988281 -0.28125 2.09375 -1.15625 C 1.195312 -2.039062 0.75 -3.253906 0.75 -4.796875 C 0.75 -5.765625 0.941406 -6.625 1.328125 -7.375 C 1.722656 -8.125 2.269531 -8.707031 2.96875 -9.125 C 3.675781 -9.550781 4.476562 -9.765625 5.375 -9.765625 C 6.6875 -9.765625 7.722656 -9.335938 8.484375 -8.484375 C 9.242188 -7.640625 9.625 -6.476562 9.625 -5 Z M 5.4375 -8.078125 C 4.800781 -8.078125 4.285156 -7.890625 3.890625 -7.515625 C 3.492188 -7.140625 3.238281 -6.601562 3.125 -5.90625 L 7.5625 -5.90625 C 7.488281 -6.625 7.269531 -7.164062 6.90625 -7.53125 C 6.550781 -7.894531 6.0625 -8.078125 5.4375 -8.078125 Z M 5.4375 -8.078125 "/></g></g></g><g fill="#868282" fill-opacity="1"><g transform="translate(616.206055, 458.922014)"><g><path d="M 6.734375 -9.765625 C 9.003906 -9.765625 10.140625 -8.457031 10.140625 -5.84375 L 10.140625 0 L 7.78125 0 L 7.78125 -5.734375 C 7.78125 -6.484375 7.632812 -7.03125 7.34375 -7.375 C 7.0625 -7.726562 6.617188 -7.90625 6.015625 -7.90625 C 5.296875 -7.90625 4.71875 -7.675781 4.28125 -7.21875 C 3.84375 -6.757812 3.625 -6.148438 3.625 -5.390625 L 3.625 0 L 1.28125 0 L 1.28125 -6.828125 C 1.28125 -7.828125 1.226562 -8.726562 1.125 -9.53125 L 3.34375 -9.53125 L 3.515625 -7.953125 C 3.835938 -8.535156 4.273438 -8.984375 4.828125 -9.296875 C 5.390625 -9.609375 6.023438 -9.765625 6.734375 -9.765625 Z M 6.734375 -9.765625 "/></g></g></g><g fill="#868282" fill-opacity="1"><g transform="translate(627.579444, 458.922014)"><g><path d="M 4.28125 -7.75 L 4.28125 -3.484375 C 4.28125 -2.367188 4.800781 -1.8125 5.84375 -1.8125 C 6.132812 -1.8125 6.453125 -1.863281 6.796875 -1.96875 L 6.796875 -0.09375 C 6.378906 0.0507812 5.875 0.125 5.28125 0.125 C 4.195312 0.125 3.363281 -0.171875 2.78125 -0.765625 C 2.207031 -1.367188 1.921875 -2.238281 1.921875 -3.375 L 1.921875 -7.75 L 0.09375 -7.75 L 0.09375 -9.53125 L 1.921875 -9.53125 L 1.921875 -11.84375 L 4.28125 -12.640625 L 4.28125 -9.53125 L 6.8125 -9.53125 L 6.8125 -7.75 Z M 4.28125 -7.75 "/></g></g></g><g clip-path="url(#a310d304e0)"><path fill="#91adbb" d="M 598.90625 388.898438 C 598.90625 403.734375 586.882812 415.761719 572.046875 415.761719 C 557.210938 415.761719 545.183594 403.734375 545.183594 388.898438 C 545.183594 374.0625 557.210938 362.035156 572.046875 362.035156 C 586.882812 362.035156 598.90625 374.0625 598.90625 388.898438 " fill-opacity="1" fill-rule="nonzero"/></g><path fill="#331520" d="M 580.480469 372.621094 C 580.480469 377.203125 576.765625 380.917969 572.183594 380.917969 C 567.601562 380.917969 563.886719 377.203125 563.886719 372.621094 C 563.886719 368.039062 567.601562 364.324219 572.183594 364.324219 C 576.765625 364.324219 580.480469 368.039062 580.480469 372.621094 " fill-opacity="1" fill-rule="nonzero"/><g clip-path="url(#23bc8a7739)"><path fill="#ffffff" d="M 587.71875 415.832031 C 586.390625 416.824219 584.960938 417.695312 583.457031 418.421875 C 583.226562 418.53125 582.996094 418.636719 582.765625 418.742188 C 579.492188 420.210938 575.863281 421.027344 572.046875 421.027344 C 568.226562 421.027344 564.601562 420.210938 561.328125 418.742188 C 561.09375 418.636719 560.863281 418.53125 560.636719 418.421875 C 559.128906 417.691406 557.703125 416.824219 556.375 415.832031 C 556.609375 410.640625 559.367188 406.105469 563.453125 403.425781 C 565.921875 401.804688 568.871094 400.867188 572.046875 400.867188 C 572.53125 400.867188 573.007812 400.886719 573.480469 400.929688 C 576.109375 401.167969 578.546875 402.050781 580.640625 403.425781 C 582.519531 404.660156 584.121094 406.285156 585.320312 408.1875 C 586.730469 410.417969 587.589844 413.03125 587.71875 415.832031 " fill-opacity="1" fill-rule="nonzero"/></g><path fill="#ba5c21" d="M 580.640625 403.425781 C 580.398438 405.238281 579.601562 406.875 578.417969 408.152344 C 576.835938 409.867188 574.566406 410.945312 572.046875 410.945312 C 568.007812 410.945312 564.613281 408.183594 563.652344 404.445312 C 563.566406 404.113281 563.5 403.769531 563.453125 403.425781 C 565.921875 401.804688 568.871094 400.867188 572.046875 400.867188 C 572.53125 400.867188 573.007812 400.886719 573.480469 400.929688 C 573.5625 400.9375 573.644531 400.945312 573.726562 400.953125 C 573.777344 400.960938 573.828125 400.964844 573.878906 400.972656 C 573.933594 400.976562 573.992188 400.984375 574.046875 400.992188 C 574.078125 400.996094 574.117188 401 574.148438 401.003906 C 574.199219 401.011719 574.25 401.019531 574.300781 401.027344 C 574.339844 401.03125 574.378906 401.039062 574.421875 401.042969 C 574.457031 401.046875 574.488281 401.054688 574.523438 401.058594 C 574.582031 401.070312 574.636719 401.078125 574.695312 401.085938 C 574.945312 401.128906 575.195312 401.179688 575.4375 401.234375 L 575.601562 401.269531 C 575.632812 401.277344 575.667969 401.285156 575.699219 401.292969 C 575.753906 401.308594 575.816406 401.320312 575.871094 401.335938 C 575.882812 401.335938 575.890625 401.339844 575.898438 401.339844 C 575.972656 401.359375 576.042969 401.378906 576.117188 401.398438 C 576.195312 401.417969 576.273438 401.441406 576.347656 401.460938 C 576.433594 401.488281 576.519531 401.511719 576.605469 401.539062 C 576.675781 401.558594 576.742188 401.578125 576.808594 401.601562 C 576.851562 401.613281 576.894531 401.628906 576.9375 401.640625 C 577.007812 401.664062 577.074219 401.6875 577.144531 401.710938 C 577.230469 401.742188 577.3125 401.769531 577.398438 401.800781 C 577.40625 401.804688 577.410156 401.804688 577.414062 401.808594 C 577.5 401.839844 577.585938 401.871094 577.671875 401.902344 C 577.734375 401.929688 577.800781 401.953125 577.867188 401.980469 C 578.035156 402.046875 578.203125 402.117188 578.367188 402.1875 L 578.582031 402.285156 C 578.644531 402.316406 578.710938 402.347656 578.777344 402.378906 C 578.835938 402.40625 578.894531 402.433594 578.953125 402.464844 C 579.007812 402.488281 579.058594 402.515625 579.113281 402.542969 C 579.148438 402.558594 579.183594 402.578125 579.21875 402.597656 C 579.359375 402.667969 579.496094 402.742188 579.636719 402.820312 C 579.683594 402.847656 579.734375 402.875 579.785156 402.902344 C 579.816406 402.921875 579.847656 402.9375 579.878906 402.957031 L 579.992188 403.023438 L 580.113281 403.097656 L 580.1875 403.140625 C 580.261719 403.183594 580.335938 403.230469 580.40625 403.277344 C 580.484375 403.324219 580.5625 403.375 580.640625 403.425781 " fill-opacity="1" fill-rule="nonzero"/><path fill="#ba5c21" d="M 575.066406 397.351562 L 575.066406 403.292969 C 575.066406 404.796875 573.835938 406.027344 572.335938 406.027344 L 571.757812 406.027344 C 570.253906 406.027344 569.027344 404.796875 569.027344 403.292969 L 569.027344 397.351562 C 569.027344 395.847656 570.253906 394.617188 571.757812 394.617188 L 572.335938 394.617188 C 573.835938 394.617188 575.066406 395.847656 575.066406 397.351562 " fill-opacity="1" fill-rule="nonzero"/><path fill="#9e392b" d="M 575.066406 397.351562 L 575.066406 400.496094 C 574.167969 400.992188 573.214844 401.285156 572.25 401.285156 C 571.109375 401.285156 570.019531 400.964844 569.027344 400.414062 L 569.027344 397.351562 C 569.027344 395.847656 570.253906 394.617188 571.757812 394.617188 L 572.335938 394.617188 C 573.835938 394.617188 575.066406 395.847656 575.066406 397.351562 " fill-opacity="1" fill-rule="nonzero"/><path fill="#ba5c21" d="M 581.359375 393.667969 C 581.359375 393.667969 583.148438 393.058594 584.289062 391.0625 C 585.53125 388.898438 584.753906 387.546875 584.507812 387.253906 C 583.832031 386.457031 582.796875 386.96875 582.625 387.253906 C 582.453125 387.542969 579.976562 392.039062 581.359375 393.667969 " fill-opacity="1" fill-rule="nonzero"/><path fill="#9e392b" d="M 583.113281 387.964844 C 583.113281 387.964844 584.246094 388.109375 583.847656 389.707031 C 583.449219 391.304688 582.402344 391.933594 580.972656 392.75 C 579.550781 393.566406 581.6875 388.289062 583.113281 387.964844 " fill-opacity="1" fill-rule="nonzero"/><path fill="#ba5c21" d="M 563.199219 393.667969 C 563.199219 393.667969 561.410156 393.058594 560.265625 391.0625 C 559.023438 388.898438 559.800781 387.546875 560.046875 387.253906 C 560.722656 386.457031 561.757812 386.96875 561.929688 387.253906 C 562.101562 387.542969 564.578125 392.039062 563.199219 393.667969 " fill-opacity="1" fill-rule="nonzero"/><path fill="#9e392b" d="M 561.441406 387.964844 C 561.441406 387.964844 560.308594 388.109375 560.707031 389.707031 C 561.105469 391.304688 562.15625 391.933594 563.582031 392.75 C 565.007812 393.566406 562.871094 388.289062 561.441406 387.964844 " fill-opacity="1" fill-rule="nonzero"/><path fill="#ba5c21" d="M 583.113281 386.910156 C 583.113281 380.355469 578.273438 375.039062 572.300781 375.039062 C 566.332031 375.039062 561.492188 380.355469 561.492188 386.910156 C 561.492188 393.46875 566.332031 400.320312 572.300781 400.320312 C 577.914062 400.320312 583.113281 393.414062 583.113281 386.910156 " fill-opacity="1" fill-rule="nonzero"/><path fill="#331520" d="M 573.277344 382.125 C 573.277344 382.125 575.308594 388.667969 582.957031 388.019531 C 582.957031 388.019531 584.292969 386.085938 583.84375 381.886719 C 583.332031 377.15625 579.140625 373.175781 572.300781 374.597656 C 572.300781 374.597656 571.679688 377.964844 573.277344 382.125 " fill-opacity="1" fill-rule="nonzero"/><path fill="#331520" d="M 573.617188 375.039062 C 573.617188 375.039062 573.902344 373.800781 572.875 372.832031 C 571.847656 371.863281 558.261719 373.851562 561.492188 386.910156 C 561.492188 386.910156 564.660156 379.101562 573.046875 378.417969 L 573.617188 375.039062 " fill-opacity="1" fill-rule="nonzero"/></svg>